%TF.GenerationSoftware,KiCad,Pcbnew,(6.0.10-0)*%
%TF.CreationDate,2023-10-27T19:17:46+02:00*%
%TF.ProjectId,UVR2MQTT,55565232-4d51-4545-942e-6b696361645f,rev?*%
%TF.SameCoordinates,Original*%
%TF.FileFunction,Soldermask,Bot*%
%TF.FilePolarity,Negative*%
%FSLAX46Y46*%
G04 Gerber Fmt 4.6, Leading zero omitted, Abs format (unit mm)*
G04 Created by KiCad (PCBNEW (6.0.10-0)) date 2023-10-27 19:17:46*
%MOMM*%
%LPD*%
G01*
G04 APERTURE LIST*
%ADD10R,1.600000X1.600000*%
%ADD11O,1.600000X1.600000*%
%ADD12C,3.200000*%
%ADD13C,1.600000*%
%ADD14C,1.400000*%
%ADD15R,3.000000X3.000000*%
%ADD16C,3.000000*%
G04 APERTURE END LIST*
D10*
%TO.C,U1*%
X131328000Y-76449000D03*
D11*
X131328000Y-78989000D03*
X138948000Y-78989000D03*
X138948000Y-76449000D03*
%TD*%
D12*
%TO.C,REF\u002A\u002A*%
X142494000Y-64262000D03*
%TD*%
%TO.C,REF\u002A\u002A*%
X143256000Y-122682000D03*
%TD*%
%TO.C,REF\u002A\u002A*%
X111506000Y-122428000D03*
%TD*%
%TO.C,REF\u002A\u002A*%
X111760000Y-64262000D03*
%TD*%
D13*
%TO.C,R2*%
X122682000Y-78994000D03*
D11*
X112522000Y-78994000D03*
%TD*%
D13*
%TO.C,R1*%
X112776000Y-72390000D03*
D11*
X122936000Y-72390000D03*
%TD*%
D14*
%TO.C,U2*%
X140462000Y-113284000D03*
X137922000Y-113284000D03*
X140462000Y-110744000D03*
X137922000Y-110744000D03*
X140462000Y-108204000D03*
X137922000Y-108204000D03*
X140462000Y-105664000D03*
X137922000Y-105664000D03*
X140462000Y-103124000D03*
X137922000Y-103124000D03*
X140462000Y-100584000D03*
X137922000Y-100584000D03*
X140462000Y-98044000D03*
X137922000Y-98044000D03*
X140462000Y-95504000D03*
X137922000Y-95504000D03*
X140462000Y-92964000D03*
X137922000Y-92964000D03*
X140462000Y-90424000D03*
X137922000Y-90424000D03*
X115062000Y-113284000D03*
X112522000Y-113284000D03*
X115062000Y-110744000D03*
X112522000Y-110744000D03*
X115062000Y-108204000D03*
X112522000Y-108204000D03*
X115062000Y-105664000D03*
X112522000Y-105664000D03*
X115062000Y-103124000D03*
X112522000Y-103124000D03*
X115062000Y-100584000D03*
X112522000Y-100584000D03*
X115062000Y-98044000D03*
X112522000Y-98044000D03*
X115062000Y-95504000D03*
X112522000Y-95504000D03*
X115062000Y-92964000D03*
X112522000Y-92964000D03*
X112522000Y-90424000D03*
X115062000Y-90424000D03*
%TD*%
D15*
%TO.C,J1*%
X137414000Y-69342000D03*
D16*
X132334000Y-69342000D03*
%TD*%
M02*
