%TF.GenerationSoftware,KiCad,Pcbnew,(6.0.10-0)*%
%TF.CreationDate,2023-10-27T19:17:45+02:00*%
%TF.ProjectId,UVR2MQTT,55565232-4d51-4545-942e-6b696361645f,rev?*%
%TF.SameCoordinates,Original*%
%TF.FileFunction,Copper,L1,Top*%
%TF.FilePolarity,Positive*%
%FSLAX46Y46*%
G04 Gerber Fmt 4.6, Leading zero omitted, Abs format (unit mm)*
G04 Created by KiCad (PCBNEW (6.0.10-0)) date 2023-10-27 19:17:45*
%MOMM*%
%LPD*%
G01*
G04 APERTURE LIST*
%TA.AperFunction,ComponentPad*%
%ADD10R,1.600000X1.600000*%
%TD*%
%TA.AperFunction,ComponentPad*%
%ADD11O,1.600000X1.600000*%
%TD*%
%TA.AperFunction,ComponentPad*%
%ADD12C,1.600000*%
%TD*%
%TA.AperFunction,ComponentPad*%
%ADD13C,1.400000*%
%TD*%
%TA.AperFunction,ComponentPad*%
%ADD14R,3.000000X3.000000*%
%TD*%
%TA.AperFunction,ComponentPad*%
%ADD15C,3.000000*%
%TD*%
%TA.AperFunction,Conductor*%
%ADD16C,0.500000*%
%TD*%
G04 APERTURE END LIST*
D10*
%TO.P,U1,1*%
%TO.N,Net-(R1-Pad1)*%
X131328000Y-76449000D03*
D11*
%TO.P,U1,2*%
%TO.N,Net-(U1-Pad2)*%
X131328000Y-78989000D03*
%TO.P,U1,3*%
%TO.N,GND*%
X138948000Y-78989000D03*
%TO.P,U1,4*%
%TO.N,IO26*%
X138948000Y-76449000D03*
%TD*%
D12*
%TO.P,R2,1*%
%TO.N,IO26*%
X122682000Y-78994000D03*
D11*
%TO.P,R2,2*%
%TO.N,3V3*%
X112522000Y-78994000D03*
%TD*%
D12*
%TO.P,R1,1*%
%TO.N,Net-(R1-Pad1)*%
X112776000Y-72390000D03*
D11*
%TO.P,R1,2*%
%TO.N,Net-(R1-Pad2)*%
X122936000Y-72390000D03*
%TD*%
D13*
%TO.P,U2,40,CLK*%
%TO.N,unconnected-(U2-Pad40)*%
X140462000Y-113284000D03*
%TO.P,U2,39,SD0*%
%TO.N,unconnected-(U2-Pad39)*%
X137922000Y-113284000D03*
%TO.P,U2,38,SD1*%
%TO.N,unconnected-(U2-Pad38)*%
X140462000Y-110744000D03*
%TO.P,U2,37,TD0*%
%TO.N,unconnected-(U2-Pad37)*%
X137922000Y-110744000D03*
%TO.P,U2,36,IO_02*%
%TO.N,unconnected-(U2-Pad36)*%
X140462000Y-108204000D03*
%TO.P,U2,35,VCC_(USB)*%
%TO.N,unconnected-(U2-Pad35)*%
X137922000Y-108204000D03*
%TO.P,U2,34,IO_00*%
%TO.N,unconnected-(U2-Pad34)*%
X140462000Y-105664000D03*
%TO.P,U2,33,GND*%
%TO.N,GND*%
X137922000Y-105664000D03*
%TO.P,U2,32,IO_04*%
%TO.N,unconnected-(U2-Pad32)*%
X140462000Y-103124000D03*
%TO.P,U2,31,IO_16/D4*%
%TO.N,unconnected-(U2-Pad31)*%
X137922000Y-103124000D03*
%TO.P,U2,30,IO_12/TDI*%
%TO.N,unconnected-(U2-Pad30)*%
X140462000Y-100584000D03*
%TO.P,U2,29,IO_17/D3*%
%TO.N,unconnected-(U2-Pad29)*%
X137922000Y-100584000D03*
%TO.P,U2,28,IO_32*%
%TO.N,unconnected-(U2-Pad28)*%
X140462000Y-98044000D03*
%TO.P,U2,27,IO_21/D2/SDA*%
%TO.N,unconnected-(U2-Pad27)*%
X137922000Y-98044000D03*
%TO.P,U2,26,IO_25*%
%TO.N,unconnected-(U2-Pad26)*%
X140462000Y-95504000D03*
%TO.P,U2,25,IO_22/D1/SCL*%
%TO.N,unconnected-(U2-Pad25)*%
X137922000Y-95504000D03*
%TO.P,U2,24,IO_27*%
%TO.N,unconnected-(U2-Pad24)*%
X140462000Y-92964000D03*
%TO.P,U2,23,RXD*%
%TO.N,unconnected-(U2-Pad23)*%
X137922000Y-92964000D03*
%TO.P,U2,22,GND*%
%TO.N,GND*%
X140462000Y-90424000D03*
%TO.P,U2,21,TXD*%
%TO.N,unconnected-(U2-Pad21)*%
X137922000Y-90424000D03*
%TO.P,U2,20,IO_10/SD3*%
%TO.N,unconnected-(U2-Pad20)*%
X115062000Y-113284000D03*
%TO.P,U2,19,CMD*%
%TO.N,unconnected-(U2-Pad19)*%
X112522000Y-113284000D03*
%TO.P,U2,18,IO_13/TCK*%
%TO.N,unconnected-(U2-Pad18)*%
X115062000Y-110744000D03*
%TO.P,U2,17,IO_09/SD2*%
%TO.N,unconnected-(U2-Pad17)*%
X112522000Y-110744000D03*
%TO.P,U2,16,3V3*%
%TO.N,3V3*%
X115062000Y-108204000D03*
%TO.P,U2,15,NC*%
%TO.N,unconnected-(U2-Pad15)*%
X112522000Y-108204000D03*
%TO.P,U2,14,IO_05/D8*%
%TO.N,unconnected-(U2-Pad14)*%
X115062000Y-105664000D03*
%TO.P,U2,13,IO_14/TMS*%
%TO.N,unconnected-(U2-Pad13)*%
X112522000Y-105664000D03*
%TO.P,U2,12,IO_23/D7*%
%TO.N,unconnected-(U2-Pad12)*%
X115062000Y-103124000D03*
%TO.P,U2,11,IO_34*%
%TO.N,unconnected-(U2-Pad11)*%
X112522000Y-103124000D03*
%TO.P,U2,10,IO_19/D6*%
%TO.N,unconnected-(U2-Pad10)*%
X115062000Y-100584000D03*
%TO.P,U2,9,IO_33*%
%TO.N,unconnected-(U2-Pad9)*%
X112522000Y-100584000D03*
%TO.P,U2,8,IO_18/D5*%
%TO.N,unconnected-(U2-Pad8)*%
X115062000Y-98044000D03*
%TO.P,U2,7,IO_35*%
%TO.N,unconnected-(U2-Pad7)*%
X112522000Y-98044000D03*
%TO.P,U2,6,IO_26/D0*%
%TO.N,IO26*%
X115062000Y-95504000D03*
%TO.P,U2,5,IO_39/SVN*%
%TO.N,unconnected-(U2-Pad5)*%
X112522000Y-95504000D03*
%TO.P,U2,4,IO_36/SVP/A0*%
%TO.N,unconnected-(U2-Pad4)*%
X115062000Y-92964000D03*
%TO.P,U2,3,NC*%
%TO.N,unconnected-(U2-Pad3)*%
X112522000Y-92964000D03*
%TO.P,U2,1,GND*%
%TO.N,GND*%
X112522000Y-90424000D03*
%TO.P,U2,2,RST*%
%TO.N,unconnected-(U2-Pad2)*%
X115062000Y-90424000D03*
%TD*%
D14*
%TO.P,J1,1,Pin_1*%
%TO.N,Net-(U1-Pad2)*%
X137414000Y-69342000D03*
D15*
%TO.P,J1,2,Pin_2*%
%TO.N,Net-(R1-Pad2)*%
X132334000Y-69342000D03*
%TD*%
D16*
%TO.N,IO26*%
X138948000Y-76449000D02*
X137419000Y-76449000D01*
X137419000Y-76449000D02*
X134874000Y-78994000D01*
X134874000Y-78994000D02*
X134874000Y-80010000D01*
X134874000Y-80010000D02*
X133858000Y-81026000D01*
X133858000Y-81026000D02*
X128270000Y-81026000D01*
X126238000Y-78994000D02*
X122682000Y-78994000D01*
X128270000Y-81026000D02*
X126238000Y-78994000D01*
X122682000Y-78994000D02*
X117856000Y-78994000D01*
X116078000Y-115824000D02*
X117602000Y-114300000D01*
X117602000Y-114300000D02*
X117602000Y-96520000D01*
X117856000Y-78994000D02*
X115316000Y-81534000D01*
X110998000Y-81534000D02*
X110236000Y-82296000D01*
X110236000Y-82296000D02*
X110236000Y-115062000D01*
X115316000Y-81534000D02*
X110998000Y-81534000D01*
X110236000Y-115062000D02*
X110998000Y-115824000D01*
X110998000Y-115824000D02*
X116078000Y-115824000D01*
X116586000Y-95504000D02*
X115062000Y-95504000D01*
X117602000Y-96520000D02*
X116586000Y-95504000D01*
%TD*%
M02*
