M48
; DRILL file {KiCad (6.0.10-0)} date Freitag, 27. Oktober 2023 um 19:17:41
; FORMAT={-:-/ absolute / metric / decimal}
; #@! TF.CreationDate,2023-10-27T19:17:41+02:00
; #@! TF.GenerationSoftware,Kicad,Pcbnew,(6.0.10-0)
; #@! TF.FileFunction,Plated,1,2,PTH
FMAT,2
METRIC
; #@! TA.AperFunction,Plated,PTH,ComponentDrill
T1C0.800
; #@! TA.AperFunction,Plated,PTH,ComponentDrill
T2C1.520
%
G90
G05
T1
X112.522Y-78.994
X112.522Y-90.424
X112.522Y-92.964
X112.522Y-95.504
X112.522Y-98.044
X112.522Y-100.584
X112.522Y-103.124
X112.522Y-105.664
X112.522Y-108.204
X112.522Y-110.744
X112.522Y-113.284
X112.776Y-72.39
X115.062Y-90.424
X115.062Y-92.964
X115.062Y-95.504
X115.062Y-98.044
X115.062Y-100.584
X115.062Y-103.124
X115.062Y-105.664
X115.062Y-108.204
X115.062Y-110.744
X115.062Y-113.284
X122.682Y-78.994
X122.936Y-72.39
X131.328Y-76.449
X131.328Y-78.989
X137.922Y-90.424
X137.922Y-92.964
X137.922Y-95.504
X137.922Y-98.044
X137.922Y-100.584
X137.922Y-103.124
X137.922Y-105.664
X137.922Y-108.204
X137.922Y-110.744
X137.922Y-113.284
X138.948Y-76.449
X138.948Y-78.989
X140.462Y-90.424
X140.462Y-92.964
X140.462Y-95.504
X140.462Y-98.044
X140.462Y-100.584
X140.462Y-103.124
X140.462Y-105.664
X140.462Y-108.204
X140.462Y-110.744
X140.462Y-113.284
T2
X132.334Y-69.342
X137.414Y-69.342
T0
M30
