%TF.GenerationSoftware,KiCad,Pcbnew,(6.0.10-0)*%
%TF.CreationDate,2023-10-27T19:17:46+02:00*%
%TF.ProjectId,UVR2MQTT,55565232-4d51-4545-942e-6b696361645f,rev?*%
%TF.SameCoordinates,Original*%
%TF.FileFunction,Copper,L2,Bot*%
%TF.FilePolarity,Positive*%
%FSLAX46Y46*%
G04 Gerber Fmt 4.6, Leading zero omitted, Abs format (unit mm)*
G04 Created by KiCad (PCBNEW (6.0.10-0)) date 2023-10-27 19:17:46*
%MOMM*%
%LPD*%
G01*
G04 APERTURE LIST*
%TA.AperFunction,ComponentPad*%
%ADD10R,1.600000X1.600000*%
%TD*%
%TA.AperFunction,ComponentPad*%
%ADD11O,1.600000X1.600000*%
%TD*%
%TA.AperFunction,ComponentPad*%
%ADD12C,1.600000*%
%TD*%
%TA.AperFunction,ComponentPad*%
%ADD13C,1.400000*%
%TD*%
%TA.AperFunction,ComponentPad*%
%ADD14R,3.000000X3.000000*%
%TD*%
%TA.AperFunction,ComponentPad*%
%ADD15C,3.000000*%
%TD*%
%TA.AperFunction,Conductor*%
%ADD16C,0.500000*%
%TD*%
%TA.AperFunction,Conductor*%
%ADD17C,0.250000*%
%TD*%
G04 APERTURE END LIST*
D10*
%TO.P,U1,1*%
%TO.N,Net-(R1-Pad1)*%
X131328000Y-76449000D03*
D11*
%TO.P,U1,2*%
%TO.N,Net-(U1-Pad2)*%
X131328000Y-78989000D03*
%TO.P,U1,3*%
%TO.N,GND*%
X138948000Y-78989000D03*
%TO.P,U1,4*%
%TO.N,IO26*%
X138948000Y-76449000D03*
%TD*%
D12*
%TO.P,R2,1*%
%TO.N,IO26*%
X122682000Y-78994000D03*
D11*
%TO.P,R2,2*%
%TO.N,3V3*%
X112522000Y-78994000D03*
%TD*%
D12*
%TO.P,R1,1*%
%TO.N,Net-(R1-Pad1)*%
X112776000Y-72390000D03*
D11*
%TO.P,R1,2*%
%TO.N,Net-(R1-Pad2)*%
X122936000Y-72390000D03*
%TD*%
D13*
%TO.P,U2,40,CLK*%
%TO.N,unconnected-(U2-Pad40)*%
X140462000Y-113284000D03*
%TO.P,U2,39,SD0*%
%TO.N,unconnected-(U2-Pad39)*%
X137922000Y-113284000D03*
%TO.P,U2,38,SD1*%
%TO.N,unconnected-(U2-Pad38)*%
X140462000Y-110744000D03*
%TO.P,U2,37,TD0*%
%TO.N,unconnected-(U2-Pad37)*%
X137922000Y-110744000D03*
%TO.P,U2,36,IO_02*%
%TO.N,unconnected-(U2-Pad36)*%
X140462000Y-108204000D03*
%TO.P,U2,35,VCC_(USB)*%
%TO.N,unconnected-(U2-Pad35)*%
X137922000Y-108204000D03*
%TO.P,U2,34,IO_00*%
%TO.N,unconnected-(U2-Pad34)*%
X140462000Y-105664000D03*
%TO.P,U2,33,GND*%
%TO.N,GND*%
X137922000Y-105664000D03*
%TO.P,U2,32,IO_04*%
%TO.N,unconnected-(U2-Pad32)*%
X140462000Y-103124000D03*
%TO.P,U2,31,IO_16/D4*%
%TO.N,unconnected-(U2-Pad31)*%
X137922000Y-103124000D03*
%TO.P,U2,30,IO_12/TDI*%
%TO.N,unconnected-(U2-Pad30)*%
X140462000Y-100584000D03*
%TO.P,U2,29,IO_17/D3*%
%TO.N,unconnected-(U2-Pad29)*%
X137922000Y-100584000D03*
%TO.P,U2,28,IO_32*%
%TO.N,unconnected-(U2-Pad28)*%
X140462000Y-98044000D03*
%TO.P,U2,27,IO_21/D2/SDA*%
%TO.N,unconnected-(U2-Pad27)*%
X137922000Y-98044000D03*
%TO.P,U2,26,IO_25*%
%TO.N,unconnected-(U2-Pad26)*%
X140462000Y-95504000D03*
%TO.P,U2,25,IO_22/D1/SCL*%
%TO.N,unconnected-(U2-Pad25)*%
X137922000Y-95504000D03*
%TO.P,U2,24,IO_27*%
%TO.N,unconnected-(U2-Pad24)*%
X140462000Y-92964000D03*
%TO.P,U2,23,RXD*%
%TO.N,unconnected-(U2-Pad23)*%
X137922000Y-92964000D03*
%TO.P,U2,22,GND*%
%TO.N,GND*%
X140462000Y-90424000D03*
%TO.P,U2,21,TXD*%
%TO.N,unconnected-(U2-Pad21)*%
X137922000Y-90424000D03*
%TO.P,U2,20,IO_10/SD3*%
%TO.N,unconnected-(U2-Pad20)*%
X115062000Y-113284000D03*
%TO.P,U2,19,CMD*%
%TO.N,unconnected-(U2-Pad19)*%
X112522000Y-113284000D03*
%TO.P,U2,18,IO_13/TCK*%
%TO.N,unconnected-(U2-Pad18)*%
X115062000Y-110744000D03*
%TO.P,U2,17,IO_09/SD2*%
%TO.N,unconnected-(U2-Pad17)*%
X112522000Y-110744000D03*
%TO.P,U2,16,3V3*%
%TO.N,3V3*%
X115062000Y-108204000D03*
%TO.P,U2,15,NC*%
%TO.N,unconnected-(U2-Pad15)*%
X112522000Y-108204000D03*
%TO.P,U2,14,IO_05/D8*%
%TO.N,unconnected-(U2-Pad14)*%
X115062000Y-105664000D03*
%TO.P,U2,13,IO_14/TMS*%
%TO.N,unconnected-(U2-Pad13)*%
X112522000Y-105664000D03*
%TO.P,U2,12,IO_23/D7*%
%TO.N,unconnected-(U2-Pad12)*%
X115062000Y-103124000D03*
%TO.P,U2,11,IO_34*%
%TO.N,unconnected-(U2-Pad11)*%
X112522000Y-103124000D03*
%TO.P,U2,10,IO_19/D6*%
%TO.N,unconnected-(U2-Pad10)*%
X115062000Y-100584000D03*
%TO.P,U2,9,IO_33*%
%TO.N,unconnected-(U2-Pad9)*%
X112522000Y-100584000D03*
%TO.P,U2,8,IO_18/D5*%
%TO.N,unconnected-(U2-Pad8)*%
X115062000Y-98044000D03*
%TO.P,U2,7,IO_35*%
%TO.N,unconnected-(U2-Pad7)*%
X112522000Y-98044000D03*
%TO.P,U2,6,IO_26/D0*%
%TO.N,IO26*%
X115062000Y-95504000D03*
%TO.P,U2,5,IO_39/SVN*%
%TO.N,unconnected-(U2-Pad5)*%
X112522000Y-95504000D03*
%TO.P,U2,4,IO_36/SVP/A0*%
%TO.N,unconnected-(U2-Pad4)*%
X115062000Y-92964000D03*
%TO.P,U2,3,NC*%
%TO.N,unconnected-(U2-Pad3)*%
X112522000Y-92964000D03*
%TO.P,U2,1,GND*%
%TO.N,GND*%
X112522000Y-90424000D03*
%TO.P,U2,2,RST*%
%TO.N,unconnected-(U2-Pad2)*%
X115062000Y-90424000D03*
%TD*%
D14*
%TO.P,J1,1,Pin_1*%
%TO.N,Net-(U1-Pad2)*%
X137414000Y-69342000D03*
D15*
%TO.P,J1,2,Pin_2*%
%TO.N,Net-(R1-Pad2)*%
X132334000Y-69342000D03*
%TD*%
D16*
%TO.N,3V3*%
X112522000Y-78994000D02*
X110998000Y-78994000D01*
X111252000Y-115570000D02*
X116078000Y-115570000D01*
X110998000Y-78994000D02*
X109728000Y-80264000D01*
X109728000Y-80264000D02*
X109728000Y-114046000D01*
X109728000Y-114046000D02*
X111252000Y-115570000D01*
X116078000Y-115570000D02*
X117602000Y-114046000D01*
X117602000Y-114046000D02*
X117602000Y-109474000D01*
X117602000Y-109474000D02*
X116332000Y-108204000D01*
X116332000Y-108204000D02*
X115062000Y-108204000D01*
%TO.N,Net-(R1-Pad1)*%
X117094000Y-72390000D02*
X121158000Y-76454000D01*
X112776000Y-72390000D02*
X117094000Y-72390000D01*
X121158000Y-76454000D02*
X121163000Y-76449000D01*
X121163000Y-76449000D02*
X131328000Y-76449000D01*
%TO.N,Net-(U1-Pad2)*%
X137414000Y-69342000D02*
X137414000Y-71628000D01*
X137414000Y-71628000D02*
X134874000Y-74168000D01*
X134874000Y-74168000D02*
X134874000Y-77724000D01*
X134874000Y-77724000D02*
X133609000Y-78989000D01*
X133609000Y-78989000D02*
X131328000Y-78989000D01*
%TO.N,Net-(R1-Pad2)*%
X127254000Y-72390000D02*
X129286000Y-72390000D01*
X127000000Y-72390000D02*
X127254000Y-72390000D01*
X127254000Y-72390000D02*
X122936000Y-72390000D01*
D17*
X122936000Y-72390000D02*
X127000000Y-72390000D01*
D16*
X129286000Y-72390000D02*
X132334000Y-69342000D01*
%TD*%
%TA.AperFunction,Conductor*%
%TO.N,GND*%
G36*
X143480187Y-61216026D02*
G01*
X143503724Y-61219691D01*
X143512626Y-61218527D01*
X143512629Y-61218527D01*
X143520012Y-61217561D01*
X143544591Y-61216767D01*
X143571442Y-61218527D01*
X143766922Y-61231340D01*
X143783262Y-61233491D01*
X143905478Y-61257801D01*
X144027696Y-61282112D01*
X144043606Y-61286375D01*
X144279600Y-61366484D01*
X144294826Y-61372791D01*
X144518342Y-61483016D01*
X144532616Y-61491257D01*
X144739829Y-61629713D01*
X144752905Y-61639746D01*
X144940278Y-61804068D01*
X144951932Y-61815722D01*
X145116254Y-62003095D01*
X145126287Y-62016171D01*
X145264743Y-62223384D01*
X145272984Y-62237658D01*
X145383209Y-62461174D01*
X145389515Y-62476398D01*
X145469625Y-62712394D01*
X145473889Y-62728307D01*
X145522509Y-62972738D01*
X145524660Y-62989078D01*
X145538763Y-63204236D01*
X145537733Y-63227353D01*
X145537690Y-63230854D01*
X145536309Y-63239724D01*
X145537473Y-63248626D01*
X145540961Y-63275306D01*
X145542014Y-63290053D01*
X146302868Y-123651042D01*
X146301378Y-123672015D01*
X146299690Y-123682853D01*
X146299690Y-123682857D01*
X146298309Y-123691726D01*
X146299473Y-123700628D01*
X146299473Y-123700631D01*
X146300439Y-123708014D01*
X146301233Y-123732593D01*
X146286660Y-123954923D01*
X146284509Y-123971263D01*
X146235889Y-124215694D01*
X146231623Y-124231614D01*
X146151517Y-124467598D01*
X146145210Y-124482826D01*
X146034981Y-124706347D01*
X146026740Y-124720620D01*
X145888287Y-124927830D01*
X145878254Y-124940906D01*
X145713932Y-125128279D01*
X145702277Y-125139933D01*
X145514903Y-125304255D01*
X145501828Y-125314288D01*
X145294616Y-125452743D01*
X145280342Y-125460984D01*
X145056826Y-125571209D01*
X145041602Y-125577515D01*
X144805606Y-125657625D01*
X144789696Y-125661888D01*
X144667478Y-125686199D01*
X144545262Y-125710509D01*
X144528922Y-125712660D01*
X144313751Y-125726763D01*
X144290652Y-125725735D01*
X144287148Y-125725692D01*
X144278276Y-125724311D01*
X144249100Y-125728127D01*
X144231825Y-125729186D01*
X110540804Y-125475870D01*
X110522373Y-125474374D01*
X110508990Y-125472291D01*
X110505146Y-125471692D01*
X110505145Y-125471692D01*
X110496276Y-125470311D01*
X110487374Y-125471475D01*
X110487371Y-125471475D01*
X110479988Y-125472441D01*
X110455409Y-125473235D01*
X110410799Y-125470311D01*
X110233078Y-125458662D01*
X110216738Y-125456511D01*
X110094522Y-125432201D01*
X109972304Y-125407890D01*
X109956390Y-125403626D01*
X109720397Y-125323517D01*
X109705172Y-125317211D01*
X109481657Y-125206986D01*
X109467383Y-125198745D01*
X109260170Y-125060289D01*
X109247094Y-125050256D01*
X109059721Y-124885934D01*
X109048067Y-124874280D01*
X108883745Y-124686907D01*
X108873712Y-124673831D01*
X108735256Y-124466618D01*
X108727015Y-124452344D01*
X108616789Y-124228828D01*
X108610482Y-124213602D01*
X108581675Y-124128740D01*
X108530373Y-123977608D01*
X108526109Y-123961695D01*
X108477489Y-123717264D01*
X108475338Y-123700924D01*
X108461236Y-123485772D01*
X108462267Y-123462609D01*
X108462309Y-123459153D01*
X108463691Y-123450278D01*
X108459575Y-123418803D01*
X108458512Y-123402438D01*
X108458513Y-123401830D01*
X108458765Y-122560703D01*
X109396743Y-122560703D01*
X109434268Y-122845734D01*
X109510129Y-123123036D01*
X109622923Y-123387476D01*
X109770561Y-123634161D01*
X109950313Y-123858528D01*
X110158851Y-124056423D01*
X110392317Y-124224186D01*
X110396112Y-124226195D01*
X110396113Y-124226196D01*
X110417869Y-124237715D01*
X110646392Y-124358712D01*
X110670699Y-124367607D01*
X110902254Y-124452344D01*
X110916373Y-124457511D01*
X111197264Y-124518755D01*
X111225841Y-124521004D01*
X111420282Y-124536307D01*
X111420291Y-124536307D01*
X111422739Y-124536500D01*
X111578271Y-124536500D01*
X111580407Y-124536354D01*
X111580418Y-124536354D01*
X111788548Y-124522165D01*
X111788554Y-124522164D01*
X111792825Y-124521873D01*
X111797020Y-124521004D01*
X111797022Y-124521004D01*
X111947942Y-124489750D01*
X112074342Y-124463574D01*
X112345343Y-124367607D01*
X112600812Y-124235750D01*
X112604313Y-124233289D01*
X112604317Y-124233287D01*
X112824284Y-124078691D01*
X112836023Y-124070441D01*
X112951466Y-123963165D01*
X113043479Y-123877661D01*
X113043481Y-123877658D01*
X113046622Y-123874740D01*
X113228713Y-123652268D01*
X113378927Y-123407142D01*
X113393960Y-123372897D01*
X113492757Y-123147830D01*
X113494483Y-123143898D01*
X113507064Y-123099734D01*
X113572068Y-122871534D01*
X113573244Y-122867406D01*
X113580745Y-122814703D01*
X141146743Y-122814703D01*
X141147302Y-122818947D01*
X141147302Y-122818951D01*
X141153122Y-122863159D01*
X141184268Y-123099734D01*
X141185401Y-123103874D01*
X141185401Y-123103876D01*
X141206415Y-123180689D01*
X141260129Y-123377036D01*
X141261813Y-123380984D01*
X141287573Y-123441376D01*
X141372923Y-123641476D01*
X141445711Y-123763095D01*
X141512529Y-123874740D01*
X141520561Y-123888161D01*
X141700313Y-124112528D01*
X141908851Y-124310423D01*
X142142317Y-124478186D01*
X142146112Y-124480195D01*
X142146113Y-124480196D01*
X142167869Y-124491715D01*
X142396392Y-124612712D01*
X142420699Y-124621607D01*
X142652262Y-124706347D01*
X142666373Y-124711511D01*
X142947264Y-124772755D01*
X142975841Y-124775004D01*
X143170282Y-124790307D01*
X143170291Y-124790307D01*
X143172739Y-124790500D01*
X143328271Y-124790500D01*
X143330407Y-124790354D01*
X143330418Y-124790354D01*
X143538548Y-124776165D01*
X143538554Y-124776164D01*
X143542825Y-124775873D01*
X143547020Y-124775004D01*
X143547022Y-124775004D01*
X143809633Y-124720620D01*
X143824342Y-124717574D01*
X144095343Y-124621607D01*
X144350812Y-124489750D01*
X144354313Y-124487289D01*
X144354317Y-124487287D01*
X144527401Y-124365641D01*
X144586023Y-124324441D01*
X144796622Y-124128740D01*
X144978713Y-123906268D01*
X145128927Y-123661142D01*
X145132823Y-123652268D01*
X145242757Y-123401830D01*
X145244483Y-123397898D01*
X145323244Y-123121406D01*
X145353515Y-122908704D01*
X145363146Y-122841036D01*
X145363146Y-122841034D01*
X145363751Y-122836784D01*
X145363845Y-122818951D01*
X145365235Y-122553583D01*
X145365235Y-122553576D01*
X145365257Y-122549297D01*
X145327732Y-122264266D01*
X145251871Y-121986964D01*
X145139077Y-121722524D01*
X144991439Y-121475839D01*
X144811687Y-121251472D01*
X144603149Y-121053577D01*
X144369683Y-120885814D01*
X144347843Y-120874250D01*
X144212381Y-120802527D01*
X144115608Y-120751288D01*
X143845627Y-120652489D01*
X143564736Y-120591245D01*
X143533685Y-120588801D01*
X143341718Y-120573693D01*
X143341709Y-120573693D01*
X143339261Y-120573500D01*
X143183729Y-120573500D01*
X143181593Y-120573646D01*
X143181582Y-120573646D01*
X142973452Y-120587835D01*
X142973446Y-120587836D01*
X142969175Y-120588127D01*
X142964980Y-120588996D01*
X142964978Y-120588996D01*
X142828417Y-120617276D01*
X142687658Y-120646426D01*
X142416657Y-120742393D01*
X142161188Y-120874250D01*
X142157687Y-120876711D01*
X142157683Y-120876713D01*
X142147594Y-120883804D01*
X141925977Y-121039559D01*
X141910892Y-121053577D01*
X141729821Y-121221839D01*
X141715378Y-121235260D01*
X141533287Y-121457732D01*
X141383073Y-121702858D01*
X141381347Y-121706791D01*
X141381346Y-121706792D01*
X141269243Y-121962170D01*
X141267517Y-121966102D01*
X141266342Y-121970229D01*
X141266341Y-121970230D01*
X141253724Y-122014522D01*
X141188756Y-122242594D01*
X141148249Y-122527216D01*
X141148227Y-122531505D01*
X141148226Y-122531512D01*
X141146765Y-122810417D01*
X141146743Y-122814703D01*
X113580745Y-122814703D01*
X113613751Y-122582784D01*
X113613845Y-122564951D01*
X113615235Y-122299583D01*
X113615235Y-122299576D01*
X113615257Y-122295297D01*
X113610627Y-122260124D01*
X113578292Y-122014522D01*
X113577732Y-122010266D01*
X113564575Y-121962170D01*
X113503003Y-121737103D01*
X113501871Y-121732964D01*
X113389077Y-121468524D01*
X113259174Y-121251472D01*
X113243643Y-121225521D01*
X113243640Y-121225517D01*
X113241439Y-121221839D01*
X113061687Y-120997472D01*
X112853149Y-120799577D01*
X112619683Y-120631814D01*
X112597843Y-120620250D01*
X112544786Y-120592158D01*
X112365608Y-120497288D01*
X112095627Y-120398489D01*
X111814736Y-120337245D01*
X111783685Y-120334801D01*
X111591718Y-120319693D01*
X111591709Y-120319693D01*
X111589261Y-120319500D01*
X111433729Y-120319500D01*
X111431593Y-120319646D01*
X111431582Y-120319646D01*
X111223452Y-120333835D01*
X111223446Y-120333836D01*
X111219175Y-120334127D01*
X111214980Y-120334996D01*
X111214978Y-120334996D01*
X111078417Y-120363276D01*
X110937658Y-120392426D01*
X110666657Y-120488393D01*
X110411188Y-120620250D01*
X110407687Y-120622711D01*
X110407683Y-120622713D01*
X110363218Y-120653964D01*
X110175977Y-120785559D01*
X109965378Y-120981260D01*
X109783287Y-121203732D01*
X109633073Y-121448858D01*
X109631347Y-121452791D01*
X109631346Y-121452792D01*
X109627574Y-121461386D01*
X109517517Y-121712102D01*
X109438756Y-121988594D01*
X109435672Y-122010266D01*
X109403195Y-122238466D01*
X109398249Y-122273216D01*
X109398227Y-122277505D01*
X109398226Y-122277512D01*
X109396780Y-122553583D01*
X109396743Y-122560703D01*
X108458765Y-122560703D01*
X108461327Y-114019349D01*
X108964801Y-114019349D01*
X108965394Y-114026641D01*
X108965394Y-114026644D01*
X108969085Y-114072018D01*
X108969500Y-114082233D01*
X108969500Y-114090293D01*
X108969925Y-114093937D01*
X108972789Y-114118507D01*
X108973222Y-114122882D01*
X108973415Y-114125248D01*
X108979140Y-114195637D01*
X108981396Y-114202601D01*
X108982587Y-114208560D01*
X108983971Y-114214415D01*
X108984818Y-114221681D01*
X109009735Y-114290327D01*
X109011152Y-114294455D01*
X109033649Y-114363899D01*
X109037445Y-114370154D01*
X109039951Y-114375628D01*
X109042670Y-114381058D01*
X109045167Y-114387937D01*
X109049180Y-114394057D01*
X109049180Y-114394058D01*
X109085186Y-114448976D01*
X109087523Y-114452680D01*
X109125405Y-114515107D01*
X109129121Y-114519315D01*
X109129122Y-114519316D01*
X109132803Y-114523484D01*
X109132776Y-114523508D01*
X109135429Y-114526500D01*
X109138132Y-114529733D01*
X109142144Y-114535852D01*
X109147456Y-114540884D01*
X109198383Y-114589128D01*
X109200825Y-114591506D01*
X110668230Y-116058911D01*
X110680616Y-116073323D01*
X110689149Y-116084918D01*
X110689154Y-116084923D01*
X110693492Y-116090818D01*
X110699070Y-116095557D01*
X110699073Y-116095560D01*
X110733768Y-116125035D01*
X110741284Y-116131965D01*
X110746979Y-116137660D01*
X110749861Y-116139940D01*
X110769251Y-116155281D01*
X110772655Y-116158072D01*
X110822703Y-116200591D01*
X110828285Y-116205333D01*
X110834801Y-116208661D01*
X110839838Y-116212020D01*
X110844977Y-116215194D01*
X110850716Y-116219734D01*
X110857349Y-116222834D01*
X110916837Y-116250636D01*
X110920791Y-116252569D01*
X110985808Y-116285769D01*
X110992924Y-116287510D01*
X110998554Y-116289604D01*
X111004321Y-116291523D01*
X111010950Y-116294621D01*
X111018110Y-116296110D01*
X111018112Y-116296111D01*
X111082396Y-116309482D01*
X111086680Y-116310452D01*
X111157610Y-116327808D01*
X111163212Y-116328156D01*
X111163215Y-116328156D01*
X111168764Y-116328500D01*
X111168762Y-116328536D01*
X111172752Y-116328775D01*
X111176950Y-116329150D01*
X111184115Y-116330640D01*
X111261520Y-116328546D01*
X111264928Y-116328500D01*
X116010930Y-116328500D01*
X116029880Y-116329933D01*
X116044115Y-116332099D01*
X116044119Y-116332099D01*
X116051349Y-116333199D01*
X116058641Y-116332606D01*
X116058644Y-116332606D01*
X116104018Y-116328915D01*
X116114233Y-116328500D01*
X116122293Y-116328500D01*
X116139680Y-116326473D01*
X116150507Y-116325211D01*
X116154882Y-116324778D01*
X116220339Y-116319454D01*
X116220342Y-116319453D01*
X116227637Y-116318860D01*
X116234601Y-116316604D01*
X116240560Y-116315413D01*
X116246415Y-116314029D01*
X116253681Y-116313182D01*
X116322327Y-116288265D01*
X116326455Y-116286848D01*
X116388936Y-116266607D01*
X116388938Y-116266606D01*
X116395899Y-116264351D01*
X116402154Y-116260555D01*
X116407628Y-116258049D01*
X116413058Y-116255330D01*
X116419937Y-116252833D01*
X116480976Y-116212814D01*
X116484680Y-116210477D01*
X116547107Y-116172595D01*
X116555484Y-116165197D01*
X116555508Y-116165224D01*
X116558500Y-116162571D01*
X116561733Y-116159868D01*
X116567852Y-116155856D01*
X116621128Y-116099617D01*
X116623506Y-116097175D01*
X118090911Y-114629770D01*
X118105323Y-114617384D01*
X118116918Y-114608851D01*
X118116923Y-114608846D01*
X118122818Y-114604508D01*
X118127557Y-114598930D01*
X118127560Y-114598927D01*
X118157035Y-114564232D01*
X118163965Y-114556716D01*
X118169660Y-114551021D01*
X118187281Y-114528749D01*
X118190072Y-114525345D01*
X118232591Y-114475297D01*
X118232592Y-114475295D01*
X118237333Y-114469715D01*
X118240661Y-114463199D01*
X118244020Y-114458162D01*
X118247194Y-114453023D01*
X118251734Y-114447284D01*
X118282636Y-114381163D01*
X118284569Y-114377209D01*
X118307943Y-114331434D01*
X118317769Y-114312192D01*
X118319510Y-114305076D01*
X118321604Y-114299446D01*
X118323523Y-114293679D01*
X118326621Y-114287050D01*
X118341483Y-114215600D01*
X118342453Y-114211315D01*
X118358473Y-114145844D01*
X118359808Y-114140390D01*
X118360500Y-114129236D01*
X118360536Y-114129238D01*
X118360775Y-114125248D01*
X118361150Y-114121050D01*
X118362640Y-114113885D01*
X118360546Y-114036479D01*
X118360500Y-114033072D01*
X118360500Y-109541069D01*
X118361933Y-109522118D01*
X118364099Y-109507883D01*
X118364099Y-109507881D01*
X118365199Y-109500651D01*
X118360915Y-109447982D01*
X118360500Y-109437767D01*
X118360500Y-109429707D01*
X118357211Y-109401493D01*
X118356778Y-109397118D01*
X118351454Y-109331661D01*
X118351453Y-109331658D01*
X118350860Y-109324363D01*
X118348604Y-109317399D01*
X118347413Y-109311440D01*
X118346029Y-109305585D01*
X118345182Y-109298319D01*
X118320265Y-109229673D01*
X118318848Y-109225545D01*
X118298607Y-109163064D01*
X118298606Y-109163062D01*
X118296351Y-109156101D01*
X118292555Y-109149846D01*
X118290049Y-109144372D01*
X118287330Y-109138942D01*
X118284833Y-109132063D01*
X118244809Y-109071016D01*
X118242472Y-109067312D01*
X118207509Y-109009693D01*
X118207505Y-109009688D01*
X118204595Y-109004892D01*
X118197197Y-108996516D01*
X118197223Y-108996493D01*
X118194574Y-108993503D01*
X118191866Y-108990264D01*
X118187856Y-108984148D01*
X118182549Y-108979121D01*
X118182546Y-108979117D01*
X118131617Y-108930872D01*
X118129175Y-108928494D01*
X116915770Y-107715089D01*
X116903384Y-107700677D01*
X116894851Y-107689082D01*
X116894846Y-107689077D01*
X116890508Y-107683182D01*
X116884930Y-107678443D01*
X116884927Y-107678440D01*
X116850232Y-107648965D01*
X116842716Y-107642035D01*
X116837021Y-107636340D01*
X116830880Y-107631482D01*
X116814749Y-107618719D01*
X116811345Y-107615928D01*
X116761297Y-107573409D01*
X116761295Y-107573408D01*
X116755715Y-107568667D01*
X116749199Y-107565339D01*
X116744150Y-107561972D01*
X116739021Y-107558805D01*
X116733284Y-107554266D01*
X116667125Y-107523345D01*
X116663225Y-107521439D01*
X116598192Y-107488231D01*
X116591084Y-107486492D01*
X116585441Y-107484393D01*
X116579678Y-107482476D01*
X116573050Y-107479378D01*
X116501583Y-107464513D01*
X116497299Y-107463543D01*
X116426390Y-107446192D01*
X116420788Y-107445844D01*
X116420785Y-107445844D01*
X116415236Y-107445500D01*
X116415238Y-107445464D01*
X116411245Y-107445225D01*
X116407053Y-107444851D01*
X116399885Y-107443360D01*
X116333675Y-107445151D01*
X116322479Y-107445454D01*
X116319072Y-107445500D01*
X116064767Y-107445500D01*
X115996646Y-107425498D01*
X115975672Y-107408595D01*
X115841776Y-107274699D01*
X115668558Y-107153411D01*
X115663580Y-107151090D01*
X115663577Y-107151088D01*
X115481892Y-107066367D01*
X115481891Y-107066366D01*
X115476910Y-107064044D01*
X115471602Y-107062622D01*
X115471600Y-107062621D01*
X115445796Y-107055707D01*
X115385173Y-107018755D01*
X115354152Y-106954894D01*
X115362580Y-106884400D01*
X115407783Y-106829653D01*
X115445796Y-106812293D01*
X115471600Y-106805379D01*
X115471602Y-106805378D01*
X115476910Y-106803956D01*
X115482908Y-106801159D01*
X115663577Y-106716912D01*
X115663580Y-106716910D01*
X115668558Y-106714589D01*
X115841776Y-106593301D01*
X115991301Y-106443776D01*
X116112589Y-106270558D01*
X116201956Y-106078910D01*
X116203426Y-106073426D01*
X116255262Y-105879970D01*
X116255262Y-105879968D01*
X116256686Y-105874655D01*
X116274637Y-105669475D01*
X136709865Y-105669475D01*
X136727329Y-105869091D01*
X136729231Y-105879878D01*
X136781093Y-106073429D01*
X136784841Y-106083723D01*
X136869521Y-106265323D01*
X136874999Y-106274811D01*
X136896311Y-106305248D01*
X136906788Y-106313623D01*
X136920236Y-106306554D01*
X137549978Y-105676812D01*
X137557592Y-105662868D01*
X137557461Y-105661035D01*
X137553210Y-105654420D01*
X136919514Y-105020724D01*
X136907739Y-105014294D01*
X136895724Y-105023590D01*
X136874999Y-105053189D01*
X136869521Y-105062677D01*
X136784841Y-105244277D01*
X136781093Y-105254571D01*
X136729231Y-105448122D01*
X136727329Y-105458909D01*
X136709865Y-105658525D01*
X136709865Y-105669475D01*
X116274637Y-105669475D01*
X116275116Y-105664000D01*
X116256686Y-105453345D01*
X116234849Y-105371848D01*
X116203379Y-105254400D01*
X116203378Y-105254398D01*
X116201956Y-105249090D01*
X116112589Y-105057442D01*
X115991301Y-104884224D01*
X115841776Y-104734699D01*
X115668558Y-104613411D01*
X115663580Y-104611090D01*
X115663577Y-104611088D01*
X115481892Y-104526367D01*
X115481891Y-104526366D01*
X115476910Y-104524044D01*
X115471602Y-104522622D01*
X115471600Y-104522621D01*
X115445796Y-104515707D01*
X115385173Y-104478755D01*
X115354152Y-104414894D01*
X115362580Y-104344400D01*
X115407783Y-104289653D01*
X115445796Y-104272293D01*
X115471600Y-104265379D01*
X115471602Y-104265378D01*
X115476910Y-104263956D01*
X115481892Y-104261633D01*
X115663577Y-104176912D01*
X115663580Y-104176910D01*
X115668558Y-104174589D01*
X115841776Y-104053301D01*
X115991301Y-103903776D01*
X116112589Y-103730558D01*
X116201956Y-103538910D01*
X116256686Y-103334655D01*
X116275116Y-103124000D01*
X116256686Y-102913345D01*
X116201956Y-102709090D01*
X116112589Y-102517442D01*
X115991301Y-102344224D01*
X115841776Y-102194699D01*
X115668558Y-102073411D01*
X115663580Y-102071090D01*
X115663577Y-102071088D01*
X115481892Y-101986367D01*
X115481891Y-101986366D01*
X115476910Y-101984044D01*
X115471602Y-101982622D01*
X115471600Y-101982621D01*
X115445796Y-101975707D01*
X115385173Y-101938755D01*
X115354152Y-101874894D01*
X115362580Y-101804400D01*
X115407783Y-101749653D01*
X115445796Y-101732293D01*
X115471600Y-101725379D01*
X115471602Y-101725378D01*
X115476910Y-101723956D01*
X115481892Y-101721633D01*
X115663577Y-101636912D01*
X115663580Y-101636910D01*
X115668558Y-101634589D01*
X115841776Y-101513301D01*
X115991301Y-101363776D01*
X116112589Y-101190558D01*
X116201956Y-100998910D01*
X116256686Y-100794655D01*
X116275116Y-100584000D01*
X116256686Y-100373345D01*
X116201956Y-100169090D01*
X116112589Y-99977442D01*
X115991301Y-99804224D01*
X115841776Y-99654699D01*
X115668558Y-99533411D01*
X115663580Y-99531090D01*
X115663577Y-99531088D01*
X115481892Y-99446367D01*
X115481891Y-99446366D01*
X115476910Y-99444044D01*
X115471602Y-99442622D01*
X115471600Y-99442621D01*
X115445796Y-99435707D01*
X115385173Y-99398755D01*
X115354152Y-99334894D01*
X115362580Y-99264400D01*
X115407783Y-99209653D01*
X115445796Y-99192293D01*
X115471600Y-99185379D01*
X115471602Y-99185378D01*
X115476910Y-99183956D01*
X115481892Y-99181633D01*
X115663577Y-99096912D01*
X115663580Y-99096910D01*
X115668558Y-99094589D01*
X115841776Y-98973301D01*
X115991301Y-98823776D01*
X116112589Y-98650558D01*
X116201956Y-98458910D01*
X116256686Y-98254655D01*
X116275116Y-98044000D01*
X116256686Y-97833345D01*
X116201956Y-97629090D01*
X116112589Y-97437442D01*
X115991301Y-97264224D01*
X115841776Y-97114699D01*
X115668558Y-96993411D01*
X115663580Y-96991090D01*
X115663577Y-96991088D01*
X115481892Y-96906367D01*
X115481891Y-96906366D01*
X115476910Y-96904044D01*
X115471602Y-96902622D01*
X115471600Y-96902621D01*
X115445796Y-96895707D01*
X115385173Y-96858755D01*
X115354152Y-96794894D01*
X115362580Y-96724400D01*
X115407783Y-96669653D01*
X115445796Y-96652293D01*
X115471600Y-96645379D01*
X115471602Y-96645378D01*
X115476910Y-96643956D01*
X115481892Y-96641633D01*
X115663577Y-96556912D01*
X115663580Y-96556910D01*
X115668558Y-96554589D01*
X115841776Y-96433301D01*
X115991301Y-96283776D01*
X116112589Y-96110558D01*
X116201956Y-95918910D01*
X116256686Y-95714655D01*
X116275116Y-95504000D01*
X116256686Y-95293345D01*
X116201956Y-95089090D01*
X116112589Y-94897442D01*
X115991301Y-94724224D01*
X115841776Y-94574699D01*
X115668558Y-94453411D01*
X115663580Y-94451090D01*
X115663577Y-94451088D01*
X115481892Y-94366367D01*
X115481891Y-94366366D01*
X115476910Y-94364044D01*
X115471602Y-94362622D01*
X115471600Y-94362621D01*
X115445796Y-94355707D01*
X115385173Y-94318755D01*
X115354152Y-94254894D01*
X115362580Y-94184400D01*
X115407783Y-94129653D01*
X115445796Y-94112293D01*
X115471600Y-94105379D01*
X115471602Y-94105378D01*
X115476910Y-94103956D01*
X115481892Y-94101633D01*
X115663577Y-94016912D01*
X115663580Y-94016910D01*
X115668558Y-94014589D01*
X115841776Y-93893301D01*
X115991301Y-93743776D01*
X116112589Y-93570558D01*
X116201956Y-93378910D01*
X116256686Y-93174655D01*
X116275116Y-92964000D01*
X116256686Y-92753345D01*
X116201956Y-92549090D01*
X116112589Y-92357442D01*
X115991301Y-92184224D01*
X115841776Y-92034699D01*
X115668558Y-91913411D01*
X115663580Y-91911090D01*
X115663577Y-91911088D01*
X115481892Y-91826367D01*
X115481891Y-91826366D01*
X115476910Y-91824044D01*
X115471602Y-91822622D01*
X115471600Y-91822621D01*
X115445796Y-91815707D01*
X115385173Y-91778755D01*
X115354152Y-91714894D01*
X115362580Y-91644400D01*
X115407783Y-91589653D01*
X115445796Y-91572293D01*
X115471600Y-91565379D01*
X115471602Y-91565378D01*
X115476910Y-91563956D01*
X115482908Y-91561159D01*
X115663577Y-91476912D01*
X115663580Y-91476910D01*
X115668558Y-91474589D01*
X115841776Y-91353301D01*
X115991301Y-91203776D01*
X116112589Y-91030558D01*
X116201956Y-90838910D01*
X116203426Y-90833426D01*
X116255262Y-90639970D01*
X116255262Y-90639968D01*
X116256686Y-90634655D01*
X116275116Y-90424000D01*
X116256686Y-90213345D01*
X116235108Y-90132814D01*
X116203379Y-90014400D01*
X116203378Y-90014398D01*
X116201956Y-90009090D01*
X116112589Y-89817442D01*
X115991301Y-89644224D01*
X115841776Y-89494699D01*
X115682557Y-89383213D01*
X115638228Y-89327756D01*
X115630919Y-89257137D01*
X115662949Y-89193776D01*
X115724151Y-89157791D01*
X115754827Y-89154000D01*
X137229173Y-89154000D01*
X137297294Y-89174002D01*
X137343787Y-89227658D01*
X137353891Y-89297932D01*
X137324397Y-89362512D01*
X137301443Y-89383213D01*
X137142224Y-89494699D01*
X136992699Y-89644224D01*
X136871411Y-89817442D01*
X136782044Y-90009090D01*
X136780622Y-90014398D01*
X136780621Y-90014400D01*
X136748892Y-90132814D01*
X136727314Y-90213345D01*
X136708884Y-90424000D01*
X136727314Y-90634655D01*
X136728738Y-90639968D01*
X136728738Y-90639970D01*
X136780575Y-90833426D01*
X136782044Y-90838910D01*
X136871411Y-91030558D01*
X136992699Y-91203776D01*
X137142224Y-91353301D01*
X137315442Y-91474589D01*
X137320420Y-91476910D01*
X137320423Y-91476912D01*
X137501092Y-91561159D01*
X137507090Y-91563956D01*
X137512398Y-91565378D01*
X137512400Y-91565379D01*
X137538204Y-91572293D01*
X137598827Y-91609245D01*
X137629848Y-91673106D01*
X137621420Y-91743600D01*
X137576217Y-91798347D01*
X137538204Y-91815707D01*
X137512400Y-91822621D01*
X137512398Y-91822622D01*
X137507090Y-91824044D01*
X137502109Y-91826366D01*
X137502108Y-91826367D01*
X137320423Y-91911088D01*
X137320420Y-91911090D01*
X137315442Y-91913411D01*
X137142224Y-92034699D01*
X136992699Y-92184224D01*
X136871411Y-92357442D01*
X136782044Y-92549090D01*
X136727314Y-92753345D01*
X136708884Y-92964000D01*
X136727314Y-93174655D01*
X136782044Y-93378910D01*
X136871411Y-93570558D01*
X136992699Y-93743776D01*
X137142224Y-93893301D01*
X137315442Y-94014589D01*
X137320420Y-94016910D01*
X137320423Y-94016912D01*
X137502108Y-94101633D01*
X137507090Y-94103956D01*
X137512398Y-94105378D01*
X137512400Y-94105379D01*
X137538204Y-94112293D01*
X137598827Y-94149245D01*
X137629848Y-94213106D01*
X137621420Y-94283600D01*
X137576217Y-94338347D01*
X137538204Y-94355707D01*
X137512400Y-94362621D01*
X137512398Y-94362622D01*
X137507090Y-94364044D01*
X137502109Y-94366366D01*
X137502108Y-94366367D01*
X137320423Y-94451088D01*
X137320420Y-94451090D01*
X137315442Y-94453411D01*
X137142224Y-94574699D01*
X136992699Y-94724224D01*
X136871411Y-94897442D01*
X136782044Y-95089090D01*
X136727314Y-95293345D01*
X136708884Y-95504000D01*
X136727314Y-95714655D01*
X136782044Y-95918910D01*
X136871411Y-96110558D01*
X136992699Y-96283776D01*
X137142224Y-96433301D01*
X137315442Y-96554589D01*
X137320420Y-96556910D01*
X137320423Y-96556912D01*
X137502108Y-96641633D01*
X137507090Y-96643956D01*
X137512398Y-96645378D01*
X137512400Y-96645379D01*
X137538204Y-96652293D01*
X137598827Y-96689245D01*
X137629848Y-96753106D01*
X137621420Y-96823600D01*
X137576217Y-96878347D01*
X137538204Y-96895707D01*
X137512400Y-96902621D01*
X137512398Y-96902622D01*
X137507090Y-96904044D01*
X137502109Y-96906366D01*
X137502108Y-96906367D01*
X137320423Y-96991088D01*
X137320420Y-96991090D01*
X137315442Y-96993411D01*
X137142224Y-97114699D01*
X136992699Y-97264224D01*
X136871411Y-97437442D01*
X136782044Y-97629090D01*
X136727314Y-97833345D01*
X136708884Y-98044000D01*
X136727314Y-98254655D01*
X136782044Y-98458910D01*
X136871411Y-98650558D01*
X136992699Y-98823776D01*
X137142224Y-98973301D01*
X137315442Y-99094589D01*
X137320420Y-99096910D01*
X137320423Y-99096912D01*
X137502108Y-99181633D01*
X137507090Y-99183956D01*
X137512398Y-99185378D01*
X137512400Y-99185379D01*
X137538204Y-99192293D01*
X137598827Y-99229245D01*
X137629848Y-99293106D01*
X137621420Y-99363600D01*
X137576217Y-99418347D01*
X137538204Y-99435707D01*
X137512400Y-99442621D01*
X137512398Y-99442622D01*
X137507090Y-99444044D01*
X137502109Y-99446366D01*
X137502108Y-99446367D01*
X137320423Y-99531088D01*
X137320420Y-99531090D01*
X137315442Y-99533411D01*
X137142224Y-99654699D01*
X136992699Y-99804224D01*
X136871411Y-99977442D01*
X136782044Y-100169090D01*
X136727314Y-100373345D01*
X136708884Y-100584000D01*
X136727314Y-100794655D01*
X136782044Y-100998910D01*
X136871411Y-101190558D01*
X136992699Y-101363776D01*
X137142224Y-101513301D01*
X137315442Y-101634589D01*
X137320420Y-101636910D01*
X137320423Y-101636912D01*
X137502108Y-101721633D01*
X137507090Y-101723956D01*
X137512398Y-101725378D01*
X137512400Y-101725379D01*
X137538204Y-101732293D01*
X137598827Y-101769245D01*
X137629848Y-101833106D01*
X137621420Y-101903600D01*
X137576217Y-101958347D01*
X137538204Y-101975707D01*
X137512400Y-101982621D01*
X137512398Y-101982622D01*
X137507090Y-101984044D01*
X137502109Y-101986366D01*
X137502108Y-101986367D01*
X137320423Y-102071088D01*
X137320420Y-102071090D01*
X137315442Y-102073411D01*
X137142224Y-102194699D01*
X136992699Y-102344224D01*
X136871411Y-102517442D01*
X136782044Y-102709090D01*
X136727314Y-102913345D01*
X136708884Y-103124000D01*
X136727314Y-103334655D01*
X136782044Y-103538910D01*
X136871411Y-103730558D01*
X136992699Y-103903776D01*
X137142224Y-104053301D01*
X137315442Y-104174589D01*
X137320420Y-104176910D01*
X137320423Y-104176912D01*
X137502108Y-104261633D01*
X137507090Y-104263956D01*
X137512397Y-104265378D01*
X137512408Y-104265382D01*
X137539171Y-104272553D01*
X137599793Y-104309504D01*
X137630815Y-104373365D01*
X137622386Y-104443860D01*
X137577182Y-104498606D01*
X137539170Y-104515966D01*
X137512574Y-104523092D01*
X137502277Y-104526841D01*
X137320677Y-104611521D01*
X137311189Y-104616999D01*
X137280752Y-104638311D01*
X137272377Y-104648788D01*
X137279446Y-104662236D01*
X137909188Y-105291978D01*
X137923132Y-105299592D01*
X137924965Y-105299461D01*
X137931580Y-105295210D01*
X138565276Y-104661514D01*
X138571706Y-104649739D01*
X138562410Y-104637724D01*
X138532811Y-104616999D01*
X138523323Y-104611521D01*
X138341723Y-104526841D01*
X138331426Y-104523092D01*
X138304830Y-104515966D01*
X138244207Y-104479014D01*
X138213186Y-104415154D01*
X138221614Y-104344659D01*
X138266817Y-104289912D01*
X138304829Y-104272553D01*
X138331592Y-104265382D01*
X138331603Y-104265378D01*
X138336910Y-104263956D01*
X138341892Y-104261633D01*
X138523577Y-104176912D01*
X138523580Y-104176910D01*
X138528558Y-104174589D01*
X138701776Y-104053301D01*
X138851301Y-103903776D01*
X138972589Y-103730558D01*
X139061956Y-103538910D01*
X139070293Y-103507796D01*
X139107245Y-103447173D01*
X139171106Y-103416152D01*
X139241600Y-103424580D01*
X139296347Y-103469783D01*
X139313707Y-103507796D01*
X139322044Y-103538910D01*
X139411411Y-103730558D01*
X139532699Y-103903776D01*
X139682224Y-104053301D01*
X139855442Y-104174589D01*
X139860420Y-104176910D01*
X139860423Y-104176912D01*
X140042108Y-104261633D01*
X140047090Y-104263956D01*
X140052398Y-104265378D01*
X140052400Y-104265379D01*
X140078204Y-104272293D01*
X140138827Y-104309245D01*
X140169848Y-104373106D01*
X140161420Y-104443600D01*
X140116217Y-104498347D01*
X140078204Y-104515707D01*
X140052400Y-104522621D01*
X140052398Y-104522622D01*
X140047090Y-104524044D01*
X140042109Y-104526366D01*
X140042108Y-104526367D01*
X139860423Y-104611088D01*
X139860420Y-104611090D01*
X139855442Y-104613411D01*
X139682224Y-104734699D01*
X139532699Y-104884224D01*
X139411411Y-105057442D01*
X139322044Y-105249090D01*
X139320622Y-105254397D01*
X139320618Y-105254408D01*
X139313447Y-105281171D01*
X139276496Y-105341793D01*
X139212635Y-105372815D01*
X139142140Y-105364386D01*
X139087394Y-105319182D01*
X139070034Y-105281170D01*
X139062908Y-105254574D01*
X139059159Y-105244277D01*
X138974479Y-105062677D01*
X138969001Y-105053189D01*
X138947689Y-105022752D01*
X138937212Y-105014377D01*
X138923764Y-105021446D01*
X138294022Y-105651188D01*
X138286408Y-105665132D01*
X138286539Y-105666965D01*
X138290790Y-105673580D01*
X138924486Y-106307276D01*
X138936261Y-106313706D01*
X138948276Y-106304410D01*
X138969001Y-106274811D01*
X138974479Y-106265323D01*
X139059159Y-106083723D01*
X139062908Y-106073426D01*
X139070034Y-106046830D01*
X139106986Y-105986207D01*
X139170846Y-105955186D01*
X139241341Y-105963614D01*
X139296088Y-106008817D01*
X139313447Y-106046829D01*
X139320618Y-106073592D01*
X139320621Y-106073600D01*
X139322044Y-106078910D01*
X139411411Y-106270558D01*
X139532699Y-106443776D01*
X139682224Y-106593301D01*
X139855442Y-106714589D01*
X139860420Y-106716910D01*
X139860423Y-106716912D01*
X140041092Y-106801159D01*
X140047090Y-106803956D01*
X140052398Y-106805378D01*
X140052400Y-106805379D01*
X140078204Y-106812293D01*
X140138827Y-106849245D01*
X140169848Y-106913106D01*
X140161420Y-106983600D01*
X140116217Y-107038347D01*
X140078204Y-107055707D01*
X140052400Y-107062621D01*
X140052398Y-107062622D01*
X140047090Y-107064044D01*
X140042109Y-107066366D01*
X140042108Y-107066367D01*
X139860423Y-107151088D01*
X139860420Y-107151090D01*
X139855442Y-107153411D01*
X139682224Y-107274699D01*
X139532699Y-107424224D01*
X139411411Y-107597442D01*
X139409090Y-107602420D01*
X139409088Y-107602423D01*
X139359696Y-107708345D01*
X139322044Y-107789090D01*
X139320622Y-107794398D01*
X139320621Y-107794400D01*
X139313707Y-107820204D01*
X139276755Y-107880827D01*
X139212894Y-107911848D01*
X139142400Y-107903420D01*
X139087653Y-107858217D01*
X139070293Y-107820204D01*
X139063379Y-107794400D01*
X139063378Y-107794398D01*
X139061956Y-107789090D01*
X139024304Y-107708345D01*
X138974912Y-107602423D01*
X138974910Y-107602420D01*
X138972589Y-107597442D01*
X138851301Y-107424224D01*
X138701776Y-107274699D01*
X138528558Y-107153411D01*
X138523580Y-107151090D01*
X138523577Y-107151088D01*
X138341892Y-107066367D01*
X138341891Y-107066366D01*
X138336910Y-107064044D01*
X138331603Y-107062622D01*
X138331592Y-107062618D01*
X138304829Y-107055447D01*
X138244207Y-107018496D01*
X138213185Y-106954635D01*
X138221614Y-106884140D01*
X138266818Y-106829394D01*
X138304830Y-106812034D01*
X138331426Y-106804908D01*
X138341723Y-106801159D01*
X138523323Y-106716479D01*
X138532811Y-106711001D01*
X138563248Y-106689689D01*
X138571623Y-106679212D01*
X138564554Y-106665764D01*
X137934812Y-106036022D01*
X137920868Y-106028408D01*
X137919035Y-106028539D01*
X137912420Y-106032790D01*
X137278724Y-106666486D01*
X137272294Y-106678261D01*
X137281590Y-106690276D01*
X137311189Y-106711001D01*
X137320677Y-106716479D01*
X137502277Y-106801159D01*
X137512574Y-106804908D01*
X137539170Y-106812034D01*
X137599793Y-106848986D01*
X137630814Y-106912846D01*
X137622386Y-106983341D01*
X137577183Y-107038088D01*
X137539171Y-107055447D01*
X137512408Y-107062618D01*
X137512397Y-107062622D01*
X137507090Y-107064044D01*
X137502109Y-107066366D01*
X137502108Y-107066367D01*
X137320423Y-107151088D01*
X137320420Y-107151090D01*
X137315442Y-107153411D01*
X137142224Y-107274699D01*
X136992699Y-107424224D01*
X136871411Y-107597442D01*
X136869090Y-107602420D01*
X136869088Y-107602423D01*
X136819696Y-107708345D01*
X136782044Y-107789090D01*
X136727314Y-107993345D01*
X136708884Y-108204000D01*
X136727314Y-108414655D01*
X136782044Y-108618910D01*
X136871411Y-108810558D01*
X136992699Y-108983776D01*
X137142224Y-109133301D01*
X137315442Y-109254589D01*
X137320420Y-109256910D01*
X137320423Y-109256912D01*
X137480723Y-109331661D01*
X137507090Y-109343956D01*
X137512398Y-109345378D01*
X137512400Y-109345379D01*
X137538204Y-109352293D01*
X137598827Y-109389245D01*
X137629848Y-109453106D01*
X137621420Y-109523600D01*
X137576217Y-109578347D01*
X137538204Y-109595707D01*
X137512400Y-109602621D01*
X137512398Y-109602622D01*
X137507090Y-109604044D01*
X137502109Y-109606366D01*
X137502108Y-109606367D01*
X137320423Y-109691088D01*
X137320420Y-109691090D01*
X137315442Y-109693411D01*
X137142224Y-109814699D01*
X136992699Y-109964224D01*
X136871411Y-110137442D01*
X136782044Y-110329090D01*
X136727314Y-110533345D01*
X136708884Y-110744000D01*
X136727314Y-110954655D01*
X136782044Y-111158910D01*
X136871411Y-111350558D01*
X136992699Y-111523776D01*
X137142224Y-111673301D01*
X137315442Y-111794589D01*
X137320420Y-111796910D01*
X137320423Y-111796912D01*
X137502108Y-111881633D01*
X137507090Y-111883956D01*
X137512398Y-111885378D01*
X137512400Y-111885379D01*
X137538204Y-111892293D01*
X137598827Y-111929245D01*
X137629848Y-111993106D01*
X137621420Y-112063600D01*
X137576217Y-112118347D01*
X137538204Y-112135707D01*
X137512400Y-112142621D01*
X137512398Y-112142622D01*
X137507090Y-112144044D01*
X137502109Y-112146366D01*
X137502108Y-112146367D01*
X137320423Y-112231088D01*
X137320420Y-112231090D01*
X137315442Y-112233411D01*
X137142224Y-112354699D01*
X136992699Y-112504224D01*
X136871411Y-112677442D01*
X136782044Y-112869090D01*
X136727314Y-113073345D01*
X136708884Y-113284000D01*
X136727314Y-113494655D01*
X136728738Y-113499968D01*
X136728738Y-113499970D01*
X136776878Y-113679629D01*
X136782044Y-113698910D01*
X136871411Y-113890558D01*
X136992699Y-114063776D01*
X137142224Y-114213301D01*
X137315442Y-114334589D01*
X137320420Y-114336910D01*
X137320423Y-114336912D01*
X137502108Y-114421633D01*
X137507090Y-114423956D01*
X137512398Y-114425378D01*
X137512400Y-114425379D01*
X137706030Y-114477262D01*
X137706032Y-114477262D01*
X137711345Y-114478686D01*
X137922000Y-114497116D01*
X138132655Y-114478686D01*
X138137968Y-114477262D01*
X138137970Y-114477262D01*
X138331600Y-114425379D01*
X138331602Y-114425378D01*
X138336910Y-114423956D01*
X138341892Y-114421633D01*
X138523577Y-114336912D01*
X138523580Y-114336910D01*
X138528558Y-114334589D01*
X138701776Y-114213301D01*
X138851301Y-114063776D01*
X138972589Y-113890558D01*
X139061956Y-113698910D01*
X139070293Y-113667796D01*
X139107245Y-113607173D01*
X139171106Y-113576152D01*
X139241600Y-113584580D01*
X139296347Y-113629783D01*
X139313707Y-113667796D01*
X139322044Y-113698910D01*
X139411411Y-113890558D01*
X139532699Y-114063776D01*
X139682224Y-114213301D01*
X139855442Y-114334589D01*
X139860420Y-114336910D01*
X139860423Y-114336912D01*
X140042108Y-114421633D01*
X140047090Y-114423956D01*
X140052398Y-114425378D01*
X140052400Y-114425379D01*
X140246030Y-114477262D01*
X140246032Y-114477262D01*
X140251345Y-114478686D01*
X140462000Y-114497116D01*
X140672655Y-114478686D01*
X140677968Y-114477262D01*
X140677970Y-114477262D01*
X140871600Y-114425379D01*
X140871602Y-114425378D01*
X140876910Y-114423956D01*
X140881892Y-114421633D01*
X141063577Y-114336912D01*
X141063580Y-114336910D01*
X141068558Y-114334589D01*
X141241776Y-114213301D01*
X141391301Y-114063776D01*
X141512589Y-113890558D01*
X141601956Y-113698910D01*
X141607123Y-113679629D01*
X141655262Y-113499970D01*
X141655262Y-113499968D01*
X141656686Y-113494655D01*
X141675116Y-113284000D01*
X141656686Y-113073345D01*
X141601956Y-112869090D01*
X141512589Y-112677442D01*
X141391301Y-112504224D01*
X141241776Y-112354699D01*
X141068558Y-112233411D01*
X141063580Y-112231090D01*
X141063577Y-112231088D01*
X140881892Y-112146367D01*
X140881891Y-112146366D01*
X140876910Y-112144044D01*
X140871602Y-112142622D01*
X140871600Y-112142621D01*
X140845796Y-112135707D01*
X140785173Y-112098755D01*
X140754152Y-112034894D01*
X140762580Y-111964400D01*
X140807783Y-111909653D01*
X140845796Y-111892293D01*
X140871600Y-111885379D01*
X140871602Y-111885378D01*
X140876910Y-111883956D01*
X140881892Y-111881633D01*
X141063577Y-111796912D01*
X141063580Y-111796910D01*
X141068558Y-111794589D01*
X141241776Y-111673301D01*
X141391301Y-111523776D01*
X141512589Y-111350558D01*
X141601956Y-111158910D01*
X141656686Y-110954655D01*
X141675116Y-110744000D01*
X141656686Y-110533345D01*
X141601956Y-110329090D01*
X141512589Y-110137442D01*
X141391301Y-109964224D01*
X141241776Y-109814699D01*
X141068558Y-109693411D01*
X141063580Y-109691090D01*
X141063577Y-109691088D01*
X140881892Y-109606367D01*
X140881891Y-109606366D01*
X140876910Y-109604044D01*
X140871602Y-109602622D01*
X140871600Y-109602621D01*
X140845796Y-109595707D01*
X140785173Y-109558755D01*
X140754152Y-109494894D01*
X140762580Y-109424400D01*
X140807783Y-109369653D01*
X140845796Y-109352293D01*
X140871600Y-109345379D01*
X140871602Y-109345378D01*
X140876910Y-109343956D01*
X140903277Y-109331661D01*
X141063577Y-109256912D01*
X141063580Y-109256910D01*
X141068558Y-109254589D01*
X141241776Y-109133301D01*
X141391301Y-108983776D01*
X141512589Y-108810558D01*
X141601956Y-108618910D01*
X141656686Y-108414655D01*
X141675116Y-108204000D01*
X141656686Y-107993345D01*
X141601956Y-107789090D01*
X141564304Y-107708345D01*
X141514912Y-107602423D01*
X141514910Y-107602420D01*
X141512589Y-107597442D01*
X141391301Y-107424224D01*
X141241776Y-107274699D01*
X141068558Y-107153411D01*
X141063580Y-107151090D01*
X141063577Y-107151088D01*
X140881892Y-107066367D01*
X140881891Y-107066366D01*
X140876910Y-107064044D01*
X140871602Y-107062622D01*
X140871600Y-107062621D01*
X140845796Y-107055707D01*
X140785173Y-107018755D01*
X140754152Y-106954894D01*
X140762580Y-106884400D01*
X140807783Y-106829653D01*
X140845796Y-106812293D01*
X140871600Y-106805379D01*
X140871602Y-106805378D01*
X140876910Y-106803956D01*
X140882908Y-106801159D01*
X141063577Y-106716912D01*
X141063580Y-106716910D01*
X141068558Y-106714589D01*
X141241776Y-106593301D01*
X141391301Y-106443776D01*
X141512589Y-106270558D01*
X141601956Y-106078910D01*
X141603426Y-106073426D01*
X141655262Y-105879970D01*
X141655262Y-105879968D01*
X141656686Y-105874655D01*
X141675116Y-105664000D01*
X141656686Y-105453345D01*
X141634849Y-105371848D01*
X141603379Y-105254400D01*
X141603378Y-105254398D01*
X141601956Y-105249090D01*
X141512589Y-105057442D01*
X141391301Y-104884224D01*
X141241776Y-104734699D01*
X141068558Y-104613411D01*
X141063580Y-104611090D01*
X141063577Y-104611088D01*
X140881892Y-104526367D01*
X140881891Y-104526366D01*
X140876910Y-104524044D01*
X140871602Y-104522622D01*
X140871600Y-104522621D01*
X140845796Y-104515707D01*
X140785173Y-104478755D01*
X140754152Y-104414894D01*
X140762580Y-104344400D01*
X140807783Y-104289653D01*
X140845796Y-104272293D01*
X140871600Y-104265379D01*
X140871602Y-104265378D01*
X140876910Y-104263956D01*
X140881892Y-104261633D01*
X141063577Y-104176912D01*
X141063580Y-104176910D01*
X141068558Y-104174589D01*
X141241776Y-104053301D01*
X141391301Y-103903776D01*
X141512589Y-103730558D01*
X141601956Y-103538910D01*
X141656686Y-103334655D01*
X141675116Y-103124000D01*
X141656686Y-102913345D01*
X141601956Y-102709090D01*
X141512589Y-102517442D01*
X141391301Y-102344224D01*
X141241776Y-102194699D01*
X141068558Y-102073411D01*
X141063580Y-102071090D01*
X141063577Y-102071088D01*
X140881892Y-101986367D01*
X140881891Y-101986366D01*
X140876910Y-101984044D01*
X140871602Y-101982622D01*
X140871600Y-101982621D01*
X140845796Y-101975707D01*
X140785173Y-101938755D01*
X140754152Y-101874894D01*
X140762580Y-101804400D01*
X140807783Y-101749653D01*
X140845796Y-101732293D01*
X140871600Y-101725379D01*
X140871602Y-101725378D01*
X140876910Y-101723956D01*
X140881892Y-101721633D01*
X141063577Y-101636912D01*
X141063580Y-101636910D01*
X141068558Y-101634589D01*
X141241776Y-101513301D01*
X141391301Y-101363776D01*
X141512589Y-101190558D01*
X141601956Y-100998910D01*
X141656686Y-100794655D01*
X141675116Y-100584000D01*
X141656686Y-100373345D01*
X141601956Y-100169090D01*
X141512589Y-99977442D01*
X141391301Y-99804224D01*
X141241776Y-99654699D01*
X141068558Y-99533411D01*
X141063580Y-99531090D01*
X141063577Y-99531088D01*
X140881892Y-99446367D01*
X140881891Y-99446366D01*
X140876910Y-99444044D01*
X140871602Y-99442622D01*
X140871600Y-99442621D01*
X140845796Y-99435707D01*
X140785173Y-99398755D01*
X140754152Y-99334894D01*
X140762580Y-99264400D01*
X140807783Y-99209653D01*
X140845796Y-99192293D01*
X140871600Y-99185379D01*
X140871602Y-99185378D01*
X140876910Y-99183956D01*
X140881892Y-99181633D01*
X141063577Y-99096912D01*
X141063580Y-99096910D01*
X141068558Y-99094589D01*
X141241776Y-98973301D01*
X141391301Y-98823776D01*
X141512589Y-98650558D01*
X141601956Y-98458910D01*
X141656686Y-98254655D01*
X141675116Y-98044000D01*
X141656686Y-97833345D01*
X141601956Y-97629090D01*
X141512589Y-97437442D01*
X141391301Y-97264224D01*
X141241776Y-97114699D01*
X141068558Y-96993411D01*
X141063580Y-96991090D01*
X141063577Y-96991088D01*
X140881892Y-96906367D01*
X140881891Y-96906366D01*
X140876910Y-96904044D01*
X140871602Y-96902622D01*
X140871600Y-96902621D01*
X140845796Y-96895707D01*
X140785173Y-96858755D01*
X140754152Y-96794894D01*
X140762580Y-96724400D01*
X140807783Y-96669653D01*
X140845796Y-96652293D01*
X140871600Y-96645379D01*
X140871602Y-96645378D01*
X140876910Y-96643956D01*
X140881892Y-96641633D01*
X141063577Y-96556912D01*
X141063580Y-96556910D01*
X141068558Y-96554589D01*
X141241776Y-96433301D01*
X141391301Y-96283776D01*
X141512589Y-96110558D01*
X141601956Y-95918910D01*
X141656686Y-95714655D01*
X141675116Y-95504000D01*
X141656686Y-95293345D01*
X141601956Y-95089090D01*
X141512589Y-94897442D01*
X141391301Y-94724224D01*
X141241776Y-94574699D01*
X141068558Y-94453411D01*
X141063580Y-94451090D01*
X141063577Y-94451088D01*
X140881892Y-94366367D01*
X140881891Y-94366366D01*
X140876910Y-94364044D01*
X140871602Y-94362622D01*
X140871600Y-94362621D01*
X140845796Y-94355707D01*
X140785173Y-94318755D01*
X140754152Y-94254894D01*
X140762580Y-94184400D01*
X140807783Y-94129653D01*
X140845796Y-94112293D01*
X140871600Y-94105379D01*
X140871602Y-94105378D01*
X140876910Y-94103956D01*
X140881892Y-94101633D01*
X141063577Y-94016912D01*
X141063580Y-94016910D01*
X141068558Y-94014589D01*
X141241776Y-93893301D01*
X141391301Y-93743776D01*
X141512589Y-93570558D01*
X141601956Y-93378910D01*
X141656686Y-93174655D01*
X141675116Y-92964000D01*
X141656686Y-92753345D01*
X141601956Y-92549090D01*
X141512589Y-92357442D01*
X141391301Y-92184224D01*
X141241776Y-92034699D01*
X141068558Y-91913411D01*
X141063580Y-91911090D01*
X141063577Y-91911088D01*
X140881892Y-91826367D01*
X140881891Y-91826366D01*
X140876910Y-91824044D01*
X140871603Y-91822622D01*
X140871592Y-91822618D01*
X140844829Y-91815447D01*
X140784207Y-91778496D01*
X140753185Y-91714635D01*
X140761614Y-91644140D01*
X140806818Y-91589394D01*
X140844830Y-91572034D01*
X140871426Y-91564908D01*
X140881723Y-91561159D01*
X141063323Y-91476479D01*
X141072811Y-91471001D01*
X141103248Y-91449689D01*
X141111623Y-91439212D01*
X141104554Y-91425764D01*
X140474812Y-90796022D01*
X140460868Y-90788408D01*
X140459035Y-90788539D01*
X140452420Y-90792790D01*
X139818724Y-91426486D01*
X139812294Y-91438261D01*
X139821590Y-91450276D01*
X139851189Y-91471001D01*
X139860677Y-91476479D01*
X140042277Y-91561159D01*
X140052574Y-91564908D01*
X140079170Y-91572034D01*
X140139793Y-91608986D01*
X140170814Y-91672846D01*
X140162386Y-91743341D01*
X140117183Y-91798088D01*
X140079171Y-91815447D01*
X140052408Y-91822618D01*
X140052397Y-91822622D01*
X140047090Y-91824044D01*
X140042109Y-91826366D01*
X140042108Y-91826367D01*
X139860423Y-91911088D01*
X139860420Y-91911090D01*
X139855442Y-91913411D01*
X139682224Y-92034699D01*
X139532699Y-92184224D01*
X139411411Y-92357442D01*
X139322044Y-92549090D01*
X139320622Y-92554398D01*
X139320621Y-92554400D01*
X139313707Y-92580204D01*
X139276755Y-92640827D01*
X139212894Y-92671848D01*
X139142400Y-92663420D01*
X139087653Y-92618217D01*
X139070293Y-92580204D01*
X139063379Y-92554400D01*
X139063378Y-92554398D01*
X139061956Y-92549090D01*
X138972589Y-92357442D01*
X138851301Y-92184224D01*
X138701776Y-92034699D01*
X138528558Y-91913411D01*
X138523580Y-91911090D01*
X138523577Y-91911088D01*
X138341892Y-91826367D01*
X138341891Y-91826366D01*
X138336910Y-91824044D01*
X138331602Y-91822622D01*
X138331600Y-91822621D01*
X138305796Y-91815707D01*
X138245173Y-91778755D01*
X138214152Y-91714894D01*
X138222580Y-91644400D01*
X138267783Y-91589653D01*
X138305796Y-91572293D01*
X138331600Y-91565379D01*
X138331602Y-91565378D01*
X138336910Y-91563956D01*
X138342908Y-91561159D01*
X138523577Y-91476912D01*
X138523580Y-91476910D01*
X138528558Y-91474589D01*
X138701776Y-91353301D01*
X138851301Y-91203776D01*
X138972589Y-91030558D01*
X139061956Y-90838910D01*
X139063379Y-90833600D01*
X139063382Y-90833592D01*
X139070553Y-90806829D01*
X139107504Y-90746207D01*
X139171365Y-90715185D01*
X139241860Y-90723614D01*
X139296606Y-90768818D01*
X139313966Y-90806830D01*
X139321092Y-90833426D01*
X139324841Y-90843723D01*
X139409521Y-91025323D01*
X139414999Y-91034811D01*
X139436311Y-91065248D01*
X139446788Y-91073623D01*
X139460236Y-91066554D01*
X140089978Y-90436812D01*
X140096356Y-90425132D01*
X140826408Y-90425132D01*
X140826539Y-90426965D01*
X140830790Y-90433580D01*
X141464486Y-91067276D01*
X141476261Y-91073706D01*
X141488276Y-91064410D01*
X141509001Y-91034811D01*
X141514479Y-91025323D01*
X141599159Y-90843723D01*
X141602907Y-90833429D01*
X141654769Y-90639878D01*
X141656671Y-90629091D01*
X141674135Y-90429475D01*
X141674135Y-90418525D01*
X141656671Y-90218909D01*
X141654769Y-90208122D01*
X141602907Y-90014571D01*
X141599159Y-90004277D01*
X141514479Y-89822677D01*
X141509001Y-89813189D01*
X141487689Y-89782752D01*
X141477212Y-89774377D01*
X141463764Y-89781446D01*
X140834022Y-90411188D01*
X140826408Y-90425132D01*
X140096356Y-90425132D01*
X140097592Y-90422868D01*
X140097461Y-90421035D01*
X140093210Y-90414420D01*
X139459514Y-89780724D01*
X139447739Y-89774294D01*
X139435724Y-89783590D01*
X139414999Y-89813189D01*
X139409521Y-89822677D01*
X139324841Y-90004277D01*
X139321092Y-90014574D01*
X139313966Y-90041170D01*
X139277014Y-90101793D01*
X139213154Y-90132814D01*
X139142659Y-90124386D01*
X139087912Y-90079183D01*
X139070553Y-90041171D01*
X139063382Y-90014408D01*
X139063378Y-90014397D01*
X139061956Y-90009090D01*
X138972589Y-89817442D01*
X138851301Y-89644224D01*
X138701776Y-89494699D01*
X138542557Y-89383213D01*
X138498228Y-89327756D01*
X138490919Y-89257137D01*
X138522949Y-89193776D01*
X138584151Y-89157791D01*
X138614827Y-89154000D01*
X139770043Y-89154000D01*
X139838164Y-89174002D01*
X139884657Y-89227658D01*
X139894761Y-89297932D01*
X139865267Y-89362512D01*
X139842314Y-89383213D01*
X139820752Y-89398311D01*
X139812377Y-89408788D01*
X139819446Y-89422236D01*
X140449188Y-90051978D01*
X140463132Y-90059592D01*
X140464965Y-90059461D01*
X140471580Y-90055210D01*
X141105276Y-89421514D01*
X141111706Y-89409739D01*
X141102410Y-89397724D01*
X141081686Y-89383213D01*
X141037358Y-89327756D01*
X141030049Y-89257137D01*
X141062080Y-89193776D01*
X141123281Y-89157791D01*
X141153957Y-89154000D01*
X141732000Y-89154000D01*
X141732000Y-82804000D01*
X111252000Y-82804000D01*
X111252000Y-89154000D01*
X111830043Y-89154000D01*
X111898164Y-89174002D01*
X111944657Y-89227658D01*
X111954761Y-89297932D01*
X111925267Y-89362512D01*
X111902314Y-89383213D01*
X111880752Y-89398311D01*
X111872377Y-89408788D01*
X111879446Y-89422236D01*
X112509188Y-90051978D01*
X112523132Y-90059592D01*
X112524965Y-90059461D01*
X112531580Y-90055210D01*
X113165276Y-89421514D01*
X113171706Y-89409739D01*
X113162410Y-89397724D01*
X113141686Y-89383213D01*
X113097358Y-89327756D01*
X113090049Y-89257137D01*
X113122080Y-89193776D01*
X113183281Y-89157791D01*
X113213957Y-89154000D01*
X114369173Y-89154000D01*
X114437294Y-89174002D01*
X114483787Y-89227658D01*
X114493891Y-89297932D01*
X114464397Y-89362512D01*
X114441443Y-89383213D01*
X114282224Y-89494699D01*
X114132699Y-89644224D01*
X114011411Y-89817442D01*
X113922044Y-90009090D01*
X113920622Y-90014397D01*
X113920618Y-90014408D01*
X113913447Y-90041171D01*
X113876496Y-90101793D01*
X113812635Y-90132815D01*
X113742140Y-90124386D01*
X113687394Y-90079182D01*
X113670034Y-90041170D01*
X113662908Y-90014574D01*
X113659159Y-90004277D01*
X113574479Y-89822677D01*
X113569001Y-89813189D01*
X113547689Y-89782752D01*
X113537212Y-89774377D01*
X113523764Y-89781446D01*
X112894022Y-90411188D01*
X112886408Y-90425132D01*
X112886539Y-90426965D01*
X112890790Y-90433580D01*
X113524486Y-91067276D01*
X113536261Y-91073706D01*
X113548276Y-91064410D01*
X113569001Y-91034811D01*
X113574479Y-91025323D01*
X113659159Y-90843723D01*
X113662908Y-90833426D01*
X113670034Y-90806830D01*
X113706986Y-90746207D01*
X113770846Y-90715186D01*
X113841341Y-90723614D01*
X113896088Y-90768817D01*
X113913447Y-90806829D01*
X113920618Y-90833592D01*
X113920621Y-90833600D01*
X113922044Y-90838910D01*
X114011411Y-91030558D01*
X114132699Y-91203776D01*
X114282224Y-91353301D01*
X114455442Y-91474589D01*
X114460420Y-91476910D01*
X114460423Y-91476912D01*
X114641092Y-91561159D01*
X114647090Y-91563956D01*
X114652398Y-91565378D01*
X114652400Y-91565379D01*
X114678204Y-91572293D01*
X114738827Y-91609245D01*
X114769848Y-91673106D01*
X114761420Y-91743600D01*
X114716217Y-91798347D01*
X114678204Y-91815707D01*
X114652400Y-91822621D01*
X114652398Y-91822622D01*
X114647090Y-91824044D01*
X114642109Y-91826366D01*
X114642108Y-91826367D01*
X114460423Y-91911088D01*
X114460420Y-91911090D01*
X114455442Y-91913411D01*
X114282224Y-92034699D01*
X114132699Y-92184224D01*
X114011411Y-92357442D01*
X113922044Y-92549090D01*
X113920622Y-92554398D01*
X113920621Y-92554400D01*
X113913707Y-92580204D01*
X113876755Y-92640827D01*
X113812894Y-92671848D01*
X113742400Y-92663420D01*
X113687653Y-92618217D01*
X113670293Y-92580204D01*
X113663379Y-92554400D01*
X113663378Y-92554398D01*
X113661956Y-92549090D01*
X113572589Y-92357442D01*
X113451301Y-92184224D01*
X113301776Y-92034699D01*
X113128558Y-91913411D01*
X113123580Y-91911090D01*
X113123577Y-91911088D01*
X112941892Y-91826367D01*
X112941891Y-91826366D01*
X112936910Y-91824044D01*
X112931603Y-91822622D01*
X112931592Y-91822618D01*
X112904829Y-91815447D01*
X112844207Y-91778496D01*
X112813185Y-91714635D01*
X112821614Y-91644140D01*
X112866818Y-91589394D01*
X112904830Y-91572034D01*
X112931426Y-91564908D01*
X112941723Y-91561159D01*
X113123323Y-91476479D01*
X113132811Y-91471001D01*
X113163248Y-91449689D01*
X113171623Y-91439212D01*
X113164554Y-91425764D01*
X112534812Y-90796022D01*
X112520868Y-90788408D01*
X112519035Y-90788539D01*
X112512420Y-90792790D01*
X111878724Y-91426486D01*
X111872294Y-91438261D01*
X111881590Y-91450276D01*
X111911189Y-91471001D01*
X111920677Y-91476479D01*
X112102277Y-91561159D01*
X112112574Y-91564908D01*
X112139170Y-91572034D01*
X112199793Y-91608986D01*
X112230814Y-91672846D01*
X112222386Y-91743341D01*
X112177183Y-91798088D01*
X112139171Y-91815447D01*
X112112408Y-91822618D01*
X112112397Y-91822622D01*
X112107090Y-91824044D01*
X112102109Y-91826366D01*
X112102108Y-91826367D01*
X111920423Y-91911088D01*
X111920420Y-91911090D01*
X111915442Y-91913411D01*
X111742224Y-92034699D01*
X111592699Y-92184224D01*
X111471411Y-92357442D01*
X111382044Y-92549090D01*
X111327314Y-92753345D01*
X111308884Y-92964000D01*
X111327314Y-93174655D01*
X111382044Y-93378910D01*
X111471411Y-93570558D01*
X111592699Y-93743776D01*
X111742224Y-93893301D01*
X111915442Y-94014589D01*
X111920420Y-94016910D01*
X111920423Y-94016912D01*
X112102108Y-94101633D01*
X112107090Y-94103956D01*
X112112398Y-94105378D01*
X112112400Y-94105379D01*
X112138204Y-94112293D01*
X112198827Y-94149245D01*
X112229848Y-94213106D01*
X112221420Y-94283600D01*
X112176217Y-94338347D01*
X112138204Y-94355707D01*
X112112400Y-94362621D01*
X112112398Y-94362622D01*
X112107090Y-94364044D01*
X112102109Y-94366366D01*
X112102108Y-94366367D01*
X111920423Y-94451088D01*
X111920420Y-94451090D01*
X111915442Y-94453411D01*
X111742224Y-94574699D01*
X111592699Y-94724224D01*
X111471411Y-94897442D01*
X111382044Y-95089090D01*
X111327314Y-95293345D01*
X111308884Y-95504000D01*
X111327314Y-95714655D01*
X111382044Y-95918910D01*
X111471411Y-96110558D01*
X111592699Y-96283776D01*
X111742224Y-96433301D01*
X111915442Y-96554589D01*
X111920420Y-96556910D01*
X111920423Y-96556912D01*
X112102108Y-96641633D01*
X112107090Y-96643956D01*
X112112398Y-96645378D01*
X112112400Y-96645379D01*
X112138204Y-96652293D01*
X112198827Y-96689245D01*
X112229848Y-96753106D01*
X112221420Y-96823600D01*
X112176217Y-96878347D01*
X112138204Y-96895707D01*
X112112400Y-96902621D01*
X112112398Y-96902622D01*
X112107090Y-96904044D01*
X112102109Y-96906366D01*
X112102108Y-96906367D01*
X111920423Y-96991088D01*
X111920420Y-96991090D01*
X111915442Y-96993411D01*
X111742224Y-97114699D01*
X111592699Y-97264224D01*
X111471411Y-97437442D01*
X111382044Y-97629090D01*
X111327314Y-97833345D01*
X111308884Y-98044000D01*
X111327314Y-98254655D01*
X111382044Y-98458910D01*
X111471411Y-98650558D01*
X111592699Y-98823776D01*
X111742224Y-98973301D01*
X111915442Y-99094589D01*
X111920420Y-99096910D01*
X111920423Y-99096912D01*
X112102108Y-99181633D01*
X112107090Y-99183956D01*
X112112398Y-99185378D01*
X112112400Y-99185379D01*
X112138204Y-99192293D01*
X112198827Y-99229245D01*
X112229848Y-99293106D01*
X112221420Y-99363600D01*
X112176217Y-99418347D01*
X112138204Y-99435707D01*
X112112400Y-99442621D01*
X112112398Y-99442622D01*
X112107090Y-99444044D01*
X112102109Y-99446366D01*
X112102108Y-99446367D01*
X111920423Y-99531088D01*
X111920420Y-99531090D01*
X111915442Y-99533411D01*
X111742224Y-99654699D01*
X111592699Y-99804224D01*
X111471411Y-99977442D01*
X111382044Y-100169090D01*
X111327314Y-100373345D01*
X111308884Y-100584000D01*
X111327314Y-100794655D01*
X111382044Y-100998910D01*
X111471411Y-101190558D01*
X111592699Y-101363776D01*
X111742224Y-101513301D01*
X111915442Y-101634589D01*
X111920420Y-101636910D01*
X111920423Y-101636912D01*
X112102108Y-101721633D01*
X112107090Y-101723956D01*
X112112398Y-101725378D01*
X112112400Y-101725379D01*
X112138204Y-101732293D01*
X112198827Y-101769245D01*
X112229848Y-101833106D01*
X112221420Y-101903600D01*
X112176217Y-101958347D01*
X112138204Y-101975707D01*
X112112400Y-101982621D01*
X112112398Y-101982622D01*
X112107090Y-101984044D01*
X112102109Y-101986366D01*
X112102108Y-101986367D01*
X111920423Y-102071088D01*
X111920420Y-102071090D01*
X111915442Y-102073411D01*
X111742224Y-102194699D01*
X111592699Y-102344224D01*
X111471411Y-102517442D01*
X111382044Y-102709090D01*
X111327314Y-102913345D01*
X111308884Y-103124000D01*
X111327314Y-103334655D01*
X111382044Y-103538910D01*
X111471411Y-103730558D01*
X111592699Y-103903776D01*
X111742224Y-104053301D01*
X111915442Y-104174589D01*
X111920420Y-104176910D01*
X111920423Y-104176912D01*
X112102108Y-104261633D01*
X112107090Y-104263956D01*
X112112398Y-104265378D01*
X112112400Y-104265379D01*
X112138204Y-104272293D01*
X112198827Y-104309245D01*
X112229848Y-104373106D01*
X112221420Y-104443600D01*
X112176217Y-104498347D01*
X112138204Y-104515707D01*
X112112400Y-104522621D01*
X112112398Y-104522622D01*
X112107090Y-104524044D01*
X112102109Y-104526366D01*
X112102108Y-104526367D01*
X111920423Y-104611088D01*
X111920420Y-104611090D01*
X111915442Y-104613411D01*
X111742224Y-104734699D01*
X111592699Y-104884224D01*
X111471411Y-105057442D01*
X111382044Y-105249090D01*
X111380622Y-105254398D01*
X111380621Y-105254400D01*
X111349151Y-105371848D01*
X111327314Y-105453345D01*
X111308884Y-105664000D01*
X111327314Y-105874655D01*
X111328738Y-105879968D01*
X111328738Y-105879970D01*
X111380575Y-106073426D01*
X111382044Y-106078910D01*
X111471411Y-106270558D01*
X111592699Y-106443776D01*
X111742224Y-106593301D01*
X111915442Y-106714589D01*
X111920420Y-106716910D01*
X111920423Y-106716912D01*
X112101092Y-106801159D01*
X112107090Y-106803956D01*
X112112398Y-106805378D01*
X112112400Y-106805379D01*
X112138204Y-106812293D01*
X112198827Y-106849245D01*
X112229848Y-106913106D01*
X112221420Y-106983600D01*
X112176217Y-107038347D01*
X112138204Y-107055707D01*
X112112400Y-107062621D01*
X112112398Y-107062622D01*
X112107090Y-107064044D01*
X112102109Y-107066366D01*
X112102108Y-107066367D01*
X111920423Y-107151088D01*
X111920420Y-107151090D01*
X111915442Y-107153411D01*
X111742224Y-107274699D01*
X111592699Y-107424224D01*
X111471411Y-107597442D01*
X111469090Y-107602420D01*
X111469088Y-107602423D01*
X111419696Y-107708345D01*
X111382044Y-107789090D01*
X111327314Y-107993345D01*
X111308884Y-108204000D01*
X111327314Y-108414655D01*
X111382044Y-108618910D01*
X111471411Y-108810558D01*
X111592699Y-108983776D01*
X111742224Y-109133301D01*
X111915442Y-109254589D01*
X111920420Y-109256910D01*
X111920423Y-109256912D01*
X112080723Y-109331661D01*
X112107090Y-109343956D01*
X112112398Y-109345378D01*
X112112400Y-109345379D01*
X112138204Y-109352293D01*
X112198827Y-109389245D01*
X112229848Y-109453106D01*
X112221420Y-109523600D01*
X112176217Y-109578347D01*
X112138204Y-109595707D01*
X112112400Y-109602621D01*
X112112398Y-109602622D01*
X112107090Y-109604044D01*
X112102109Y-109606366D01*
X112102108Y-109606367D01*
X111920423Y-109691088D01*
X111920420Y-109691090D01*
X111915442Y-109693411D01*
X111742224Y-109814699D01*
X111592699Y-109964224D01*
X111471411Y-110137442D01*
X111382044Y-110329090D01*
X111327314Y-110533345D01*
X111308884Y-110744000D01*
X111327314Y-110954655D01*
X111382044Y-111158910D01*
X111471411Y-111350558D01*
X111592699Y-111523776D01*
X111742224Y-111673301D01*
X111915442Y-111794589D01*
X111920420Y-111796910D01*
X111920423Y-111796912D01*
X112102108Y-111881633D01*
X112107090Y-111883956D01*
X112112398Y-111885378D01*
X112112400Y-111885379D01*
X112138204Y-111892293D01*
X112198827Y-111929245D01*
X112229848Y-111993106D01*
X112221420Y-112063600D01*
X112176217Y-112118347D01*
X112138204Y-112135707D01*
X112112400Y-112142621D01*
X112112398Y-112142622D01*
X112107090Y-112144044D01*
X112102109Y-112146366D01*
X112102108Y-112146367D01*
X111920423Y-112231088D01*
X111920420Y-112231090D01*
X111915442Y-112233411D01*
X111742224Y-112354699D01*
X111592699Y-112504224D01*
X111471411Y-112677442D01*
X111382044Y-112869090D01*
X111327314Y-113073345D01*
X111308884Y-113284000D01*
X111327314Y-113494655D01*
X111328738Y-113499968D01*
X111328738Y-113499970D01*
X111376878Y-113679629D01*
X111382044Y-113698910D01*
X111471411Y-113890558D01*
X111592699Y-114063776D01*
X111742224Y-114213301D01*
X111915442Y-114334589D01*
X111920420Y-114336910D01*
X111920423Y-114336912D01*
X112102108Y-114421633D01*
X112107090Y-114423956D01*
X112112398Y-114425378D01*
X112112400Y-114425379D01*
X112306030Y-114477262D01*
X112306032Y-114477262D01*
X112311345Y-114478686D01*
X112522000Y-114497116D01*
X112732655Y-114478686D01*
X112737968Y-114477262D01*
X112737970Y-114477262D01*
X112931600Y-114425379D01*
X112931602Y-114425378D01*
X112936910Y-114423956D01*
X112941892Y-114421633D01*
X113123577Y-114336912D01*
X113123580Y-114336910D01*
X113128558Y-114334589D01*
X113301776Y-114213301D01*
X113451301Y-114063776D01*
X113572589Y-113890558D01*
X113661956Y-113698910D01*
X113670293Y-113667796D01*
X113707245Y-113607173D01*
X113771106Y-113576152D01*
X113841600Y-113584580D01*
X113896347Y-113629783D01*
X113913707Y-113667796D01*
X113922044Y-113698910D01*
X114011411Y-113890558D01*
X114132699Y-114063776D01*
X114282224Y-114213301D01*
X114455442Y-114334589D01*
X114460420Y-114336910D01*
X114460423Y-114336912D01*
X114642108Y-114421633D01*
X114647090Y-114423956D01*
X114652398Y-114425378D01*
X114652400Y-114425379D01*
X114846030Y-114477262D01*
X114846032Y-114477262D01*
X114851345Y-114478686D01*
X115062000Y-114497116D01*
X115272655Y-114478686D01*
X115277968Y-114477262D01*
X115277970Y-114477262D01*
X115471600Y-114425379D01*
X115471602Y-114425378D01*
X115476910Y-114423956D01*
X115481892Y-114421633D01*
X115663577Y-114336912D01*
X115663580Y-114336910D01*
X115668558Y-114334589D01*
X115841776Y-114213301D01*
X115991301Y-114063776D01*
X116112589Y-113890558D01*
X116201956Y-113698910D01*
X116207123Y-113679629D01*
X116255262Y-113499970D01*
X116255262Y-113499968D01*
X116256686Y-113494655D01*
X116275116Y-113284000D01*
X116256686Y-113073345D01*
X116201956Y-112869090D01*
X116112589Y-112677442D01*
X115991301Y-112504224D01*
X115841776Y-112354699D01*
X115668558Y-112233411D01*
X115663580Y-112231090D01*
X115663577Y-112231088D01*
X115481892Y-112146367D01*
X115481891Y-112146366D01*
X115476910Y-112144044D01*
X115471602Y-112142622D01*
X115471600Y-112142621D01*
X115445796Y-112135707D01*
X115385173Y-112098755D01*
X115354152Y-112034894D01*
X115362580Y-111964400D01*
X115407783Y-111909653D01*
X115445796Y-111892293D01*
X115471600Y-111885379D01*
X115471602Y-111885378D01*
X115476910Y-111883956D01*
X115481892Y-111881633D01*
X115663577Y-111796912D01*
X115663580Y-111796910D01*
X115668558Y-111794589D01*
X115841776Y-111673301D01*
X115991301Y-111523776D01*
X116112589Y-111350558D01*
X116201956Y-111158910D01*
X116256686Y-110954655D01*
X116275116Y-110744000D01*
X116256686Y-110533345D01*
X116201956Y-110329090D01*
X116112589Y-110137442D01*
X115991301Y-109964224D01*
X115841776Y-109814699D01*
X115668558Y-109693411D01*
X115663580Y-109691090D01*
X115663577Y-109691088D01*
X115481892Y-109606367D01*
X115481891Y-109606366D01*
X115476910Y-109604044D01*
X115471602Y-109602622D01*
X115471600Y-109602621D01*
X115445796Y-109595707D01*
X115385173Y-109558755D01*
X115354152Y-109494894D01*
X115362580Y-109424400D01*
X115407783Y-109369653D01*
X115445796Y-109352293D01*
X115471600Y-109345379D01*
X115471602Y-109345378D01*
X115476910Y-109343956D01*
X115503277Y-109331661D01*
X115663577Y-109256912D01*
X115663580Y-109256910D01*
X115668558Y-109254589D01*
X115841776Y-109133301D01*
X115926103Y-109048974D01*
X115988415Y-109014948D01*
X116059230Y-109020013D01*
X116104293Y-109048974D01*
X116806595Y-109751276D01*
X116840621Y-109813588D01*
X116843500Y-109840371D01*
X116843500Y-113679629D01*
X116823498Y-113747750D01*
X116806595Y-113768724D01*
X115800724Y-114774595D01*
X115738412Y-114808621D01*
X115711629Y-114811500D01*
X111618371Y-114811500D01*
X111550250Y-114791498D01*
X111529276Y-114774595D01*
X110523405Y-113768724D01*
X110489379Y-113706412D01*
X110486500Y-113679629D01*
X110486500Y-90429475D01*
X111309865Y-90429475D01*
X111327329Y-90629091D01*
X111329231Y-90639878D01*
X111381093Y-90833429D01*
X111384841Y-90843723D01*
X111469521Y-91025323D01*
X111474999Y-91034811D01*
X111496311Y-91065248D01*
X111506788Y-91073623D01*
X111520236Y-91066554D01*
X112149978Y-90436812D01*
X112157592Y-90422868D01*
X112157461Y-90421035D01*
X112153210Y-90414420D01*
X111519514Y-89780724D01*
X111507739Y-89774294D01*
X111495724Y-89783590D01*
X111474999Y-89813189D01*
X111469521Y-89822677D01*
X111384841Y-90004277D01*
X111381093Y-90014571D01*
X111329231Y-90208122D01*
X111327329Y-90218909D01*
X111309865Y-90418525D01*
X111309865Y-90429475D01*
X110486500Y-90429475D01*
X110486500Y-80630371D01*
X110506502Y-80562250D01*
X110523405Y-80541276D01*
X111275276Y-79789405D01*
X111337588Y-79755379D01*
X111364371Y-79752500D01*
X111390133Y-79752500D01*
X111458254Y-79772502D01*
X111493345Y-79806228D01*
X111515802Y-79838300D01*
X111677700Y-80000198D01*
X111682208Y-80003355D01*
X111682211Y-80003357D01*
X111692497Y-80010559D01*
X111865251Y-80131523D01*
X111870233Y-80133846D01*
X111870238Y-80133849D01*
X112062034Y-80223284D01*
X112072757Y-80228284D01*
X112078065Y-80229706D01*
X112078067Y-80229707D01*
X112288598Y-80286119D01*
X112288600Y-80286119D01*
X112293913Y-80287543D01*
X112522000Y-80307498D01*
X112750087Y-80287543D01*
X112755400Y-80286119D01*
X112755402Y-80286119D01*
X112965933Y-80229707D01*
X112965935Y-80229706D01*
X112971243Y-80228284D01*
X112981966Y-80223284D01*
X113173762Y-80133849D01*
X113173767Y-80133846D01*
X113178749Y-80131523D01*
X113351503Y-80010559D01*
X113361789Y-80003357D01*
X113361792Y-80003355D01*
X113366300Y-80000198D01*
X113528198Y-79838300D01*
X113534857Y-79828791D01*
X113604250Y-79729687D01*
X113659523Y-79650749D01*
X113661846Y-79645767D01*
X113661849Y-79645762D01*
X113753961Y-79448225D01*
X113753961Y-79448224D01*
X113756284Y-79443243D01*
X113805086Y-79261115D01*
X113814119Y-79227402D01*
X113814119Y-79227400D01*
X113815543Y-79222087D01*
X113835498Y-78994000D01*
X121368502Y-78994000D01*
X121388457Y-79222087D01*
X121389881Y-79227400D01*
X121389881Y-79227402D01*
X121398915Y-79261115D01*
X121447716Y-79443243D01*
X121450039Y-79448224D01*
X121450039Y-79448225D01*
X121542151Y-79645762D01*
X121542154Y-79645767D01*
X121544477Y-79650749D01*
X121599750Y-79729687D01*
X121669144Y-79828791D01*
X121675802Y-79838300D01*
X121837700Y-80000198D01*
X121842208Y-80003355D01*
X121842211Y-80003357D01*
X121852497Y-80010559D01*
X122025251Y-80131523D01*
X122030233Y-80133846D01*
X122030238Y-80133849D01*
X122222034Y-80223284D01*
X122232757Y-80228284D01*
X122238065Y-80229706D01*
X122238067Y-80229707D01*
X122448598Y-80286119D01*
X122448600Y-80286119D01*
X122453913Y-80287543D01*
X122682000Y-80307498D01*
X122910087Y-80287543D01*
X122915400Y-80286119D01*
X122915402Y-80286119D01*
X123125933Y-80229707D01*
X123125935Y-80229706D01*
X123131243Y-80228284D01*
X123141966Y-80223284D01*
X123333762Y-80133849D01*
X123333767Y-80133846D01*
X123338749Y-80131523D01*
X123511503Y-80010559D01*
X123521789Y-80003357D01*
X123521792Y-80003355D01*
X123526300Y-80000198D01*
X123688198Y-79838300D01*
X123694857Y-79828791D01*
X123764250Y-79729687D01*
X123819523Y-79650749D01*
X123821846Y-79645767D01*
X123821849Y-79645762D01*
X123913961Y-79448225D01*
X123913961Y-79448224D01*
X123916284Y-79443243D01*
X123965086Y-79261115D01*
X123974119Y-79227402D01*
X123974119Y-79227400D01*
X123975543Y-79222087D01*
X123995498Y-78994000D01*
X123975543Y-78765913D01*
X123963905Y-78722478D01*
X123917707Y-78550067D01*
X123917706Y-78550065D01*
X123916284Y-78544757D01*
X123913961Y-78539775D01*
X123821849Y-78342238D01*
X123821846Y-78342233D01*
X123819523Y-78337251D01*
X123688198Y-78149700D01*
X123526300Y-77987802D01*
X123521792Y-77984645D01*
X123521789Y-77984643D01*
X123388694Y-77891449D01*
X123338749Y-77856477D01*
X123333767Y-77854154D01*
X123333762Y-77854151D01*
X123136225Y-77762039D01*
X123136224Y-77762039D01*
X123131243Y-77759716D01*
X123125935Y-77758294D01*
X123125933Y-77758293D01*
X122915402Y-77701881D01*
X122915400Y-77701881D01*
X122910087Y-77700457D01*
X122682000Y-77680502D01*
X122453913Y-77700457D01*
X122448600Y-77701881D01*
X122448598Y-77701881D01*
X122238067Y-77758293D01*
X122238065Y-77758294D01*
X122232757Y-77759716D01*
X122227776Y-77762039D01*
X122227775Y-77762039D01*
X122030238Y-77854151D01*
X122030233Y-77854154D01*
X122025251Y-77856477D01*
X121975306Y-77891449D01*
X121842211Y-77984643D01*
X121842208Y-77984645D01*
X121837700Y-77987802D01*
X121675802Y-78149700D01*
X121544477Y-78337251D01*
X121542154Y-78342233D01*
X121542151Y-78342238D01*
X121450039Y-78539775D01*
X121447716Y-78544757D01*
X121446294Y-78550065D01*
X121446293Y-78550067D01*
X121400095Y-78722478D01*
X121388457Y-78765913D01*
X121368502Y-78994000D01*
X113835498Y-78994000D01*
X113815543Y-78765913D01*
X113803905Y-78722478D01*
X113757707Y-78550067D01*
X113757706Y-78550065D01*
X113756284Y-78544757D01*
X113753961Y-78539775D01*
X113661849Y-78342238D01*
X113661846Y-78342233D01*
X113659523Y-78337251D01*
X113528198Y-78149700D01*
X113366300Y-77987802D01*
X113361792Y-77984645D01*
X113361789Y-77984643D01*
X113228694Y-77891449D01*
X113178749Y-77856477D01*
X113173767Y-77854154D01*
X113173762Y-77854151D01*
X112976225Y-77762039D01*
X112976224Y-77762039D01*
X112971243Y-77759716D01*
X112965935Y-77758294D01*
X112965933Y-77758293D01*
X112755402Y-77701881D01*
X112755400Y-77701881D01*
X112750087Y-77700457D01*
X112522000Y-77680502D01*
X112293913Y-77700457D01*
X112288600Y-77701881D01*
X112288598Y-77701881D01*
X112078067Y-77758293D01*
X112078065Y-77758294D01*
X112072757Y-77759716D01*
X112067776Y-77762039D01*
X112067775Y-77762039D01*
X111870238Y-77854151D01*
X111870233Y-77854154D01*
X111865251Y-77856477D01*
X111815306Y-77891449D01*
X111682211Y-77984643D01*
X111682208Y-77984645D01*
X111677700Y-77987802D01*
X111515802Y-78149700D01*
X111493345Y-78181771D01*
X111437890Y-78226099D01*
X111390133Y-78235500D01*
X111065069Y-78235500D01*
X111046121Y-78234067D01*
X111038780Y-78232950D01*
X111031883Y-78231901D01*
X111031881Y-78231901D01*
X111024651Y-78230801D01*
X111017359Y-78231394D01*
X111017356Y-78231394D01*
X110971982Y-78235085D01*
X110961767Y-78235500D01*
X110953707Y-78235500D01*
X110940417Y-78237049D01*
X110925493Y-78238789D01*
X110921118Y-78239222D01*
X110855661Y-78244546D01*
X110855658Y-78244547D01*
X110848363Y-78245140D01*
X110841399Y-78247396D01*
X110835440Y-78248587D01*
X110829585Y-78249971D01*
X110822319Y-78250818D01*
X110753673Y-78275735D01*
X110749545Y-78277152D01*
X110687064Y-78297393D01*
X110687062Y-78297394D01*
X110680101Y-78299649D01*
X110673846Y-78303445D01*
X110668372Y-78305951D01*
X110662942Y-78308670D01*
X110656063Y-78311167D01*
X110595016Y-78351191D01*
X110591327Y-78353518D01*
X110571135Y-78365771D01*
X110533693Y-78388491D01*
X110533688Y-78388495D01*
X110528892Y-78391405D01*
X110520516Y-78398803D01*
X110520493Y-78398777D01*
X110517503Y-78401426D01*
X110514264Y-78404134D01*
X110508148Y-78408144D01*
X110503121Y-78413451D01*
X110503117Y-78413454D01*
X110454872Y-78464383D01*
X110452494Y-78466825D01*
X109239089Y-79680230D01*
X109224677Y-79692616D01*
X109213082Y-79701149D01*
X109213077Y-79701154D01*
X109207182Y-79705492D01*
X109202443Y-79711070D01*
X109202440Y-79711073D01*
X109172965Y-79745768D01*
X109166035Y-79753284D01*
X109160340Y-79758979D01*
X109158060Y-79761861D01*
X109142719Y-79781251D01*
X109139928Y-79784655D01*
X109102432Y-79828791D01*
X109092667Y-79840285D01*
X109089339Y-79846801D01*
X109085972Y-79851850D01*
X109082805Y-79856979D01*
X109078266Y-79862716D01*
X109047345Y-79928875D01*
X109045442Y-79932769D01*
X109012231Y-79997808D01*
X109010492Y-80004916D01*
X109008393Y-80010559D01*
X109006476Y-80016322D01*
X109003378Y-80022950D01*
X109001888Y-80030112D01*
X109001888Y-80030113D01*
X108988514Y-80094412D01*
X108987544Y-80098696D01*
X108970192Y-80169610D01*
X108969500Y-80180764D01*
X108969464Y-80180762D01*
X108969225Y-80184755D01*
X108968851Y-80188947D01*
X108967360Y-80196115D01*
X108968167Y-80225961D01*
X108969454Y-80273521D01*
X108969500Y-80276928D01*
X108969500Y-113978930D01*
X108968067Y-113997880D01*
X108964801Y-114019349D01*
X108461327Y-114019349D01*
X108473814Y-72390000D01*
X111462502Y-72390000D01*
X111482457Y-72618087D01*
X111541716Y-72839243D01*
X111544039Y-72844224D01*
X111544039Y-72844225D01*
X111636151Y-73041762D01*
X111636154Y-73041767D01*
X111638477Y-73046749D01*
X111769802Y-73234300D01*
X111931700Y-73396198D01*
X111936208Y-73399355D01*
X111936211Y-73399357D01*
X112014389Y-73454098D01*
X112119251Y-73527523D01*
X112124233Y-73529846D01*
X112124238Y-73529849D01*
X112321775Y-73621961D01*
X112326757Y-73624284D01*
X112332065Y-73625706D01*
X112332067Y-73625707D01*
X112542598Y-73682119D01*
X112542600Y-73682119D01*
X112547913Y-73683543D01*
X112776000Y-73703498D01*
X113004087Y-73683543D01*
X113009400Y-73682119D01*
X113009402Y-73682119D01*
X113219933Y-73625707D01*
X113219935Y-73625706D01*
X113225243Y-73624284D01*
X113230225Y-73621961D01*
X113427762Y-73529849D01*
X113427767Y-73529846D01*
X113432749Y-73527523D01*
X113537611Y-73454098D01*
X113615789Y-73399357D01*
X113615792Y-73399355D01*
X113620300Y-73396198D01*
X113782198Y-73234300D01*
X113804655Y-73202229D01*
X113860110Y-73157901D01*
X113907867Y-73148500D01*
X116727629Y-73148500D01*
X116795750Y-73168502D01*
X116816724Y-73185405D01*
X120601969Y-76970650D01*
X120607315Y-76976337D01*
X120648000Y-77022404D01*
X120653983Y-77026632D01*
X120700677Y-77059632D01*
X120706132Y-77063713D01*
X120756716Y-77103734D01*
X120765321Y-77107756D01*
X120784682Y-77119001D01*
X120792440Y-77124484D01*
X120852311Y-77148613D01*
X120858499Y-77151304D01*
X120916950Y-77178622D01*
X120924122Y-77180114D01*
X120924123Y-77180114D01*
X120926244Y-77180555D01*
X120947676Y-77187046D01*
X120956489Y-77190598D01*
X120963719Y-77191698D01*
X120963723Y-77191699D01*
X121020270Y-77200301D01*
X121026978Y-77201508D01*
X121082950Y-77213150D01*
X121082953Y-77213150D01*
X121090115Y-77214640D01*
X121099599Y-77214383D01*
X121121962Y-77215771D01*
X121122638Y-77215874D01*
X121124117Y-77216099D01*
X121124120Y-77216099D01*
X121131349Y-77217199D01*
X121138640Y-77216606D01*
X121138643Y-77216606D01*
X121195632Y-77211970D01*
X121202441Y-77211601D01*
X121245792Y-77210428D01*
X121266921Y-77209857D01*
X121271901Y-77208536D01*
X121286364Y-77207500D01*
X129896709Y-77207500D01*
X129964830Y-77227502D01*
X130011323Y-77281158D01*
X130021972Y-77319892D01*
X130026255Y-77359316D01*
X130077385Y-77495705D01*
X130164739Y-77612261D01*
X130281295Y-77699615D01*
X130417684Y-77750745D01*
X130428474Y-77751917D01*
X130430606Y-77752803D01*
X130433222Y-77753425D01*
X130433121Y-77753848D01*
X130494035Y-77779155D01*
X130534463Y-77837517D01*
X130536922Y-77908471D01*
X130500629Y-77969490D01*
X130491969Y-77976489D01*
X130488207Y-77979646D01*
X130483700Y-77982802D01*
X130321802Y-78144700D01*
X130318645Y-78149208D01*
X130318643Y-78149211D01*
X130315142Y-78154211D01*
X130190477Y-78332251D01*
X130188154Y-78337233D01*
X130188151Y-78337238D01*
X130096039Y-78534775D01*
X130093716Y-78539757D01*
X130034457Y-78760913D01*
X130014502Y-78989000D01*
X130034457Y-79217087D01*
X130035881Y-79222400D01*
X130035881Y-79222402D01*
X130045031Y-79256548D01*
X130093716Y-79438243D01*
X130096039Y-79443224D01*
X130096039Y-79443225D01*
X130188151Y-79640762D01*
X130188154Y-79640767D01*
X130190477Y-79645749D01*
X130321802Y-79833300D01*
X130483700Y-79995198D01*
X130488208Y-79998355D01*
X130488211Y-79998357D01*
X130566389Y-80053098D01*
X130671251Y-80126523D01*
X130676233Y-80128846D01*
X130676238Y-80128849D01*
X130836184Y-80203432D01*
X130878757Y-80223284D01*
X130884065Y-80224706D01*
X130884067Y-80224707D01*
X131094598Y-80281119D01*
X131094600Y-80281119D01*
X131099913Y-80282543D01*
X131328000Y-80302498D01*
X131556087Y-80282543D01*
X131561400Y-80281119D01*
X131561402Y-80281119D01*
X131771933Y-80224707D01*
X131771935Y-80224706D01*
X131777243Y-80223284D01*
X131819816Y-80203432D01*
X131979762Y-80128849D01*
X131979767Y-80128846D01*
X131984749Y-80126523D01*
X132089611Y-80053098D01*
X132167789Y-79998357D01*
X132167792Y-79998355D01*
X132172300Y-79995198D01*
X132334198Y-79833300D01*
X132356655Y-79801229D01*
X132412110Y-79756901D01*
X132459867Y-79747500D01*
X133541930Y-79747500D01*
X133560880Y-79748933D01*
X133575115Y-79751099D01*
X133575119Y-79751099D01*
X133582349Y-79752199D01*
X133589641Y-79751606D01*
X133589644Y-79751606D01*
X133635018Y-79747915D01*
X133645233Y-79747500D01*
X133653293Y-79747500D01*
X133666583Y-79745951D01*
X133681507Y-79744211D01*
X133685882Y-79743778D01*
X133751339Y-79738454D01*
X133751342Y-79738453D01*
X133758637Y-79737860D01*
X133765601Y-79735604D01*
X133771560Y-79734413D01*
X133777415Y-79733029D01*
X133784681Y-79732182D01*
X133853327Y-79707265D01*
X133857455Y-79705848D01*
X133919936Y-79685607D01*
X133919938Y-79685606D01*
X133926899Y-79683351D01*
X133933154Y-79679555D01*
X133938628Y-79677049D01*
X133944058Y-79674330D01*
X133950937Y-79671833D01*
X133957058Y-79667820D01*
X134011976Y-79631814D01*
X134015680Y-79629477D01*
X134078107Y-79591595D01*
X134086484Y-79584197D01*
X134086508Y-79584224D01*
X134089500Y-79581571D01*
X134092733Y-79578868D01*
X134098852Y-79574856D01*
X134152128Y-79518617D01*
X134154506Y-79516175D01*
X134415159Y-79255522D01*
X137665273Y-79255522D01*
X137712764Y-79432761D01*
X137716510Y-79443053D01*
X137808586Y-79640511D01*
X137814069Y-79650007D01*
X137939028Y-79828467D01*
X137946084Y-79836875D01*
X138100125Y-79990916D01*
X138108533Y-79997972D01*
X138286993Y-80122931D01*
X138296489Y-80128414D01*
X138493947Y-80220490D01*
X138504239Y-80224236D01*
X138676503Y-80270394D01*
X138690599Y-80270058D01*
X138694000Y-80262116D01*
X138694000Y-80256967D01*
X139202000Y-80256967D01*
X139205973Y-80270498D01*
X139214522Y-80271727D01*
X139391761Y-80224236D01*
X139402053Y-80220490D01*
X139599511Y-80128414D01*
X139609007Y-80122931D01*
X139787467Y-79997972D01*
X139795875Y-79990916D01*
X139949916Y-79836875D01*
X139956972Y-79828467D01*
X140081931Y-79650007D01*
X140087414Y-79640511D01*
X140179490Y-79443053D01*
X140183236Y-79432761D01*
X140229394Y-79260497D01*
X140229058Y-79246401D01*
X140221116Y-79243000D01*
X139220115Y-79243000D01*
X139204876Y-79247475D01*
X139203671Y-79248865D01*
X139202000Y-79256548D01*
X139202000Y-80256967D01*
X138694000Y-80256967D01*
X138694000Y-79261115D01*
X138689525Y-79245876D01*
X138688135Y-79244671D01*
X138680452Y-79243000D01*
X137680033Y-79243000D01*
X137666502Y-79246973D01*
X137665273Y-79255522D01*
X134415159Y-79255522D01*
X135362911Y-78307770D01*
X135377323Y-78295384D01*
X135388918Y-78286851D01*
X135388923Y-78286846D01*
X135394818Y-78282508D01*
X135399557Y-78276930D01*
X135399560Y-78276927D01*
X135429035Y-78242232D01*
X135435965Y-78234716D01*
X135441660Y-78229021D01*
X135446518Y-78222880D01*
X135459281Y-78206749D01*
X135462072Y-78203345D01*
X135504591Y-78153297D01*
X135504592Y-78153295D01*
X135509333Y-78147715D01*
X135512661Y-78141199D01*
X135516028Y-78136150D01*
X135519195Y-78131021D01*
X135523734Y-78125284D01*
X135554655Y-78059125D01*
X135556561Y-78055225D01*
X135589769Y-77990192D01*
X135591508Y-77983084D01*
X135593607Y-77977441D01*
X135595524Y-77971678D01*
X135598622Y-77965050D01*
X135613487Y-77893583D01*
X135614457Y-77889299D01*
X135622833Y-77855069D01*
X135631808Y-77818390D01*
X135632500Y-77807236D01*
X135632536Y-77807238D01*
X135632775Y-77803245D01*
X135633149Y-77799053D01*
X135634640Y-77791885D01*
X135632546Y-77714479D01*
X135632500Y-77711072D01*
X135632500Y-76449000D01*
X137634502Y-76449000D01*
X137654457Y-76677087D01*
X137713716Y-76898243D01*
X137716039Y-76903224D01*
X137716039Y-76903225D01*
X137808151Y-77100762D01*
X137808154Y-77100767D01*
X137810477Y-77105749D01*
X137862548Y-77180114D01*
X137886724Y-77214640D01*
X137941802Y-77293300D01*
X138103700Y-77455198D01*
X138108208Y-77458355D01*
X138108211Y-77458357D01*
X138149542Y-77487297D01*
X138291251Y-77586523D01*
X138296233Y-77588846D01*
X138296238Y-77588849D01*
X138331049Y-77605081D01*
X138384334Y-77651998D01*
X138403795Y-77720275D01*
X138383253Y-77788235D01*
X138331049Y-77833471D01*
X138296489Y-77849586D01*
X138286993Y-77855069D01*
X138108533Y-77980028D01*
X138100125Y-77987084D01*
X137946084Y-78141125D01*
X137939028Y-78149533D01*
X137814069Y-78327993D01*
X137808586Y-78337489D01*
X137716510Y-78534947D01*
X137712764Y-78545239D01*
X137666606Y-78717503D01*
X137666942Y-78731599D01*
X137674884Y-78735000D01*
X140215967Y-78735000D01*
X140229498Y-78731027D01*
X140230727Y-78722478D01*
X140183236Y-78545239D01*
X140179490Y-78534947D01*
X140087414Y-78337489D01*
X140081931Y-78327993D01*
X139956972Y-78149533D01*
X139949916Y-78141125D01*
X139795875Y-77987084D01*
X139787467Y-77980028D01*
X139609007Y-77855069D01*
X139599511Y-77849586D01*
X139564951Y-77833471D01*
X139511666Y-77786554D01*
X139492205Y-77718277D01*
X139512747Y-77650317D01*
X139564951Y-77605081D01*
X139599762Y-77588849D01*
X139599767Y-77588846D01*
X139604749Y-77586523D01*
X139746458Y-77487297D01*
X139787789Y-77458357D01*
X139787792Y-77458355D01*
X139792300Y-77455198D01*
X139954198Y-77293300D01*
X140009277Y-77214640D01*
X140033452Y-77180114D01*
X140085523Y-77105749D01*
X140087846Y-77100767D01*
X140087849Y-77100762D01*
X140179961Y-76903225D01*
X140179961Y-76903224D01*
X140182284Y-76898243D01*
X140241543Y-76677087D01*
X140261498Y-76449000D01*
X140241543Y-76220913D01*
X140182284Y-75999757D01*
X140179961Y-75994775D01*
X140087849Y-75797238D01*
X140087846Y-75797233D01*
X140085523Y-75792251D01*
X139954198Y-75604700D01*
X139792300Y-75442802D01*
X139787792Y-75439645D01*
X139787789Y-75439643D01*
X139709611Y-75384902D01*
X139604749Y-75311477D01*
X139599767Y-75309154D01*
X139599762Y-75309151D01*
X139402225Y-75217039D01*
X139402224Y-75217039D01*
X139397243Y-75214716D01*
X139391935Y-75213294D01*
X139391933Y-75213293D01*
X139181402Y-75156881D01*
X139181400Y-75156881D01*
X139176087Y-75155457D01*
X138948000Y-75135502D01*
X138719913Y-75155457D01*
X138714600Y-75156881D01*
X138714598Y-75156881D01*
X138504067Y-75213293D01*
X138504065Y-75213294D01*
X138498757Y-75214716D01*
X138493776Y-75217039D01*
X138493775Y-75217039D01*
X138296238Y-75309151D01*
X138296233Y-75309154D01*
X138291251Y-75311477D01*
X138186389Y-75384902D01*
X138108211Y-75439643D01*
X138108208Y-75439645D01*
X138103700Y-75442802D01*
X137941802Y-75604700D01*
X137810477Y-75792251D01*
X137808154Y-75797233D01*
X137808151Y-75797238D01*
X137716039Y-75994775D01*
X137713716Y-75999757D01*
X137654457Y-76220913D01*
X137634502Y-76449000D01*
X135632500Y-76449000D01*
X135632500Y-74534371D01*
X135652502Y-74466250D01*
X135669405Y-74445276D01*
X137902911Y-72211770D01*
X137917323Y-72199384D01*
X137928918Y-72190851D01*
X137928923Y-72190846D01*
X137934818Y-72186508D01*
X137939557Y-72180930D01*
X137939560Y-72180927D01*
X137969035Y-72146232D01*
X137975965Y-72138716D01*
X137981660Y-72133021D01*
X137999281Y-72110749D01*
X138002072Y-72107345D01*
X138044591Y-72057297D01*
X138044592Y-72057295D01*
X138049333Y-72051715D01*
X138052661Y-72045199D01*
X138056020Y-72040162D01*
X138059194Y-72035023D01*
X138063734Y-72029284D01*
X138094636Y-71963163D01*
X138096569Y-71959209D01*
X138126247Y-71901089D01*
X138129769Y-71894192D01*
X138131510Y-71887076D01*
X138133604Y-71881446D01*
X138135523Y-71875679D01*
X138138621Y-71869050D01*
X138153483Y-71797600D01*
X138154453Y-71793315D01*
X138171808Y-71722390D01*
X138172500Y-71711236D01*
X138172536Y-71711238D01*
X138172775Y-71707248D01*
X138173150Y-71703050D01*
X138174640Y-71695885D01*
X138172546Y-71618479D01*
X138172500Y-71615072D01*
X138172500Y-71476500D01*
X138192502Y-71408379D01*
X138246158Y-71361886D01*
X138298500Y-71350500D01*
X138962134Y-71350500D01*
X139024316Y-71343745D01*
X139160705Y-71292615D01*
X139277261Y-71205261D01*
X139364615Y-71088705D01*
X139415745Y-70952316D01*
X139422500Y-70890134D01*
X139422500Y-67793866D01*
X139415745Y-67731684D01*
X139364615Y-67595295D01*
X139277261Y-67478739D01*
X139160705Y-67391385D01*
X139024316Y-67340255D01*
X138962134Y-67333500D01*
X135865866Y-67333500D01*
X135803684Y-67340255D01*
X135667295Y-67391385D01*
X135550739Y-67478739D01*
X135463385Y-67595295D01*
X135412255Y-67731684D01*
X135405500Y-67793866D01*
X135405500Y-70890134D01*
X135412255Y-70952316D01*
X135463385Y-71088705D01*
X135550739Y-71205261D01*
X135667295Y-71292615D01*
X135803684Y-71343745D01*
X135865866Y-71350500D01*
X136314629Y-71350500D01*
X136382750Y-71370502D01*
X136429243Y-71424158D01*
X136439347Y-71494432D01*
X136409853Y-71559012D01*
X136403724Y-71565595D01*
X134385089Y-73584230D01*
X134370677Y-73596616D01*
X134359082Y-73605149D01*
X134359077Y-73605154D01*
X134353182Y-73609492D01*
X134348443Y-73615070D01*
X134348440Y-73615073D01*
X134318965Y-73649768D01*
X134312035Y-73657284D01*
X134306340Y-73662979D01*
X134304060Y-73665861D01*
X134288719Y-73685251D01*
X134285928Y-73688655D01*
X134273725Y-73703019D01*
X134238667Y-73744285D01*
X134235339Y-73750801D01*
X134231972Y-73755850D01*
X134228805Y-73760979D01*
X134224266Y-73766716D01*
X134193345Y-73832875D01*
X134191442Y-73836769D01*
X134158231Y-73901808D01*
X134156492Y-73908916D01*
X134154393Y-73914559D01*
X134152476Y-73920322D01*
X134149378Y-73926950D01*
X134147888Y-73934112D01*
X134147888Y-73934113D01*
X134134514Y-73998412D01*
X134133544Y-74002696D01*
X134116192Y-74073610D01*
X134115500Y-74084764D01*
X134115464Y-74084762D01*
X134115225Y-74088755D01*
X134114851Y-74092947D01*
X134113360Y-74100115D01*
X134113558Y-74107432D01*
X134115454Y-74177521D01*
X134115500Y-74180928D01*
X134115500Y-77357629D01*
X134095498Y-77425750D01*
X134078595Y-77446724D01*
X133331724Y-78193595D01*
X133269412Y-78227621D01*
X133242629Y-78230500D01*
X132459867Y-78230500D01*
X132391746Y-78210498D01*
X132356655Y-78176772D01*
X132334198Y-78144700D01*
X132172300Y-77982802D01*
X132167789Y-77979643D01*
X132163576Y-77976108D01*
X132164527Y-77974974D01*
X132124529Y-77924929D01*
X132117224Y-77854310D01*
X132149258Y-77790951D01*
X132210462Y-77754970D01*
X132227517Y-77751918D01*
X132238316Y-77750745D01*
X132374705Y-77699615D01*
X132491261Y-77612261D01*
X132578615Y-77495705D01*
X132629745Y-77359316D01*
X132636500Y-77297134D01*
X132636500Y-75600866D01*
X132629745Y-75538684D01*
X132578615Y-75402295D01*
X132491261Y-75285739D01*
X132374705Y-75198385D01*
X132238316Y-75147255D01*
X132176134Y-75140500D01*
X130479866Y-75140500D01*
X130417684Y-75147255D01*
X130281295Y-75198385D01*
X130164739Y-75285739D01*
X130077385Y-75402295D01*
X130026255Y-75538684D01*
X130025402Y-75546540D01*
X130021972Y-75578108D01*
X129994730Y-75643670D01*
X129936366Y-75684096D01*
X129896709Y-75690500D01*
X121519371Y-75690500D01*
X121451250Y-75670498D01*
X121430276Y-75653595D01*
X118166681Y-72390000D01*
X121622502Y-72390000D01*
X121642457Y-72618087D01*
X121701716Y-72839243D01*
X121704039Y-72844224D01*
X121704039Y-72844225D01*
X121796151Y-73041762D01*
X121796154Y-73041767D01*
X121798477Y-73046749D01*
X121929802Y-73234300D01*
X122091700Y-73396198D01*
X122096208Y-73399355D01*
X122096211Y-73399357D01*
X122174389Y-73454098D01*
X122279251Y-73527523D01*
X122284233Y-73529846D01*
X122284238Y-73529849D01*
X122481775Y-73621961D01*
X122486757Y-73624284D01*
X122492065Y-73625706D01*
X122492067Y-73625707D01*
X122702598Y-73682119D01*
X122702600Y-73682119D01*
X122707913Y-73683543D01*
X122936000Y-73703498D01*
X123164087Y-73683543D01*
X123169400Y-73682119D01*
X123169402Y-73682119D01*
X123379933Y-73625707D01*
X123379935Y-73625706D01*
X123385243Y-73624284D01*
X123390225Y-73621961D01*
X123587762Y-73529849D01*
X123587767Y-73529846D01*
X123592749Y-73527523D01*
X123697611Y-73454098D01*
X123775789Y-73399357D01*
X123775792Y-73399355D01*
X123780300Y-73396198D01*
X123942198Y-73234300D01*
X123964655Y-73202229D01*
X124020110Y-73157901D01*
X124067867Y-73148500D01*
X129218930Y-73148500D01*
X129237880Y-73149933D01*
X129252115Y-73152099D01*
X129252119Y-73152099D01*
X129259349Y-73153199D01*
X129266641Y-73152606D01*
X129266644Y-73152606D01*
X129312018Y-73148915D01*
X129322233Y-73148500D01*
X129330293Y-73148500D01*
X129343583Y-73146951D01*
X129358507Y-73145211D01*
X129362882Y-73144778D01*
X129428339Y-73139454D01*
X129428342Y-73139453D01*
X129435637Y-73138860D01*
X129442601Y-73136604D01*
X129448560Y-73135413D01*
X129454415Y-73134029D01*
X129461681Y-73133182D01*
X129530327Y-73108265D01*
X129534455Y-73106848D01*
X129596936Y-73086607D01*
X129596938Y-73086606D01*
X129603899Y-73084351D01*
X129610154Y-73080555D01*
X129615628Y-73078049D01*
X129621058Y-73075330D01*
X129627937Y-73072833D01*
X129660846Y-73051257D01*
X129688976Y-73032814D01*
X129692680Y-73030477D01*
X129755107Y-72992595D01*
X129763484Y-72985197D01*
X129763508Y-72985224D01*
X129766500Y-72982571D01*
X129769733Y-72979868D01*
X129775852Y-72975856D01*
X129829128Y-72919617D01*
X129831506Y-72917175D01*
X131493278Y-71255403D01*
X131555590Y-71221377D01*
X131626293Y-71226400D01*
X131628339Y-71227161D01*
X131632257Y-71228930D01*
X131636379Y-71230151D01*
X131890723Y-71305491D01*
X131890727Y-71305492D01*
X131894836Y-71306709D01*
X131899070Y-71307357D01*
X131899075Y-71307358D01*
X132161298Y-71347483D01*
X132161300Y-71347483D01*
X132165540Y-71348132D01*
X132304912Y-71350322D01*
X132435071Y-71352367D01*
X132435077Y-71352367D01*
X132439362Y-71352434D01*
X132711235Y-71319534D01*
X132976127Y-71250041D01*
X132980087Y-71248401D01*
X132980092Y-71248399D01*
X133111583Y-71193933D01*
X133229136Y-71145241D01*
X133465582Y-71007073D01*
X133681089Y-70838094D01*
X133871669Y-70641431D01*
X133874202Y-70637983D01*
X133874206Y-70637978D01*
X134031257Y-70424178D01*
X134033795Y-70420723D01*
X134164468Y-70180054D01*
X134261269Y-69923877D01*
X134322407Y-69656933D01*
X134346751Y-69384161D01*
X134347193Y-69342000D01*
X134328567Y-69068778D01*
X134273032Y-68800612D01*
X134181617Y-68542465D01*
X134056013Y-68299112D01*
X134046040Y-68284921D01*
X133901008Y-68078562D01*
X133898545Y-68075057D01*
X133712125Y-67874445D01*
X133708810Y-67871731D01*
X133708806Y-67871728D01*
X133547304Y-67739540D01*
X133500205Y-67700990D01*
X133266704Y-67557901D01*
X133262768Y-67556173D01*
X133019873Y-67449549D01*
X133019869Y-67449548D01*
X133015945Y-67447825D01*
X132752566Y-67372800D01*
X132748324Y-67372196D01*
X132748318Y-67372195D01*
X132543387Y-67343029D01*
X132481443Y-67334213D01*
X132337589Y-67333460D01*
X132211877Y-67332802D01*
X132211871Y-67332802D01*
X132207591Y-67332780D01*
X132203347Y-67333339D01*
X132203343Y-67333339D01*
X132129741Y-67343029D01*
X131936078Y-67368525D01*
X131931938Y-67369658D01*
X131931936Y-67369658D01*
X131864037Y-67388233D01*
X131671928Y-67440788D01*
X131667980Y-67442472D01*
X131423982Y-67546546D01*
X131423978Y-67546548D01*
X131420030Y-67548232D01*
X131400125Y-67560145D01*
X131188725Y-67686664D01*
X131188721Y-67686667D01*
X131185043Y-67688868D01*
X130971318Y-67860094D01*
X130782808Y-68058742D01*
X130623002Y-68281136D01*
X130494857Y-68523161D01*
X130493385Y-68527184D01*
X130493383Y-68527188D01*
X130486314Y-68546506D01*
X130400743Y-68780337D01*
X130342404Y-69047907D01*
X130320917Y-69320918D01*
X130336682Y-69594320D01*
X130337507Y-69598525D01*
X130337508Y-69598533D01*
X130348127Y-69652657D01*
X130389405Y-69863053D01*
X130390792Y-69867103D01*
X130390793Y-69867108D01*
X130453440Y-70050082D01*
X130456582Y-70121009D01*
X130423328Y-70179991D01*
X129008724Y-71594595D01*
X128946412Y-71628621D01*
X128919629Y-71631500D01*
X124067867Y-71631500D01*
X123999746Y-71611498D01*
X123964655Y-71577772D01*
X123942198Y-71545700D01*
X123780300Y-71383802D01*
X123775792Y-71380645D01*
X123775789Y-71380643D01*
X123670200Y-71306709D01*
X123592749Y-71252477D01*
X123587767Y-71250154D01*
X123587762Y-71250151D01*
X123390225Y-71158039D01*
X123390224Y-71158039D01*
X123385243Y-71155716D01*
X123379935Y-71154294D01*
X123379933Y-71154293D01*
X123169402Y-71097881D01*
X123169400Y-71097881D01*
X123164087Y-71096457D01*
X122936000Y-71076502D01*
X122707913Y-71096457D01*
X122702600Y-71097881D01*
X122702598Y-71097881D01*
X122492067Y-71154293D01*
X122492065Y-71154294D01*
X122486757Y-71155716D01*
X122481776Y-71158039D01*
X122481775Y-71158039D01*
X122284238Y-71250151D01*
X122284233Y-71250154D01*
X122279251Y-71252477D01*
X122201800Y-71306709D01*
X122096211Y-71380643D01*
X122096208Y-71380645D01*
X122091700Y-71383802D01*
X121929802Y-71545700D01*
X121926645Y-71550208D01*
X121926643Y-71550211D01*
X121915871Y-71565595D01*
X121798477Y-71733251D01*
X121796154Y-71738233D01*
X121796151Y-71738238D01*
X121729499Y-71881175D01*
X121701716Y-71940757D01*
X121700294Y-71946065D01*
X121700293Y-71946067D01*
X121649503Y-72135617D01*
X121642457Y-72161913D01*
X121622502Y-72390000D01*
X118166681Y-72390000D01*
X117677770Y-71901089D01*
X117665384Y-71886677D01*
X117656851Y-71875082D01*
X117656846Y-71875077D01*
X117652508Y-71869182D01*
X117646930Y-71864443D01*
X117646927Y-71864440D01*
X117612232Y-71834965D01*
X117604716Y-71828035D01*
X117599021Y-71822340D01*
X117592880Y-71817482D01*
X117576749Y-71804719D01*
X117573345Y-71801928D01*
X117523297Y-71759409D01*
X117523295Y-71759408D01*
X117517715Y-71754667D01*
X117511199Y-71751339D01*
X117506150Y-71747972D01*
X117501021Y-71744805D01*
X117495284Y-71740266D01*
X117429125Y-71709345D01*
X117425225Y-71707439D01*
X117402598Y-71695885D01*
X117360192Y-71674231D01*
X117353084Y-71672492D01*
X117347441Y-71670393D01*
X117341678Y-71668476D01*
X117335050Y-71665378D01*
X117263583Y-71650513D01*
X117259299Y-71649543D01*
X117188390Y-71632192D01*
X117182788Y-71631844D01*
X117182785Y-71631844D01*
X117177236Y-71631500D01*
X117177238Y-71631464D01*
X117173245Y-71631225D01*
X117169053Y-71630851D01*
X117161885Y-71629360D01*
X117095675Y-71631151D01*
X117084479Y-71631454D01*
X117081072Y-71631500D01*
X113907867Y-71631500D01*
X113839746Y-71611498D01*
X113804655Y-71577772D01*
X113782198Y-71545700D01*
X113620300Y-71383802D01*
X113615792Y-71380645D01*
X113615789Y-71380643D01*
X113510200Y-71306709D01*
X113432749Y-71252477D01*
X113427767Y-71250154D01*
X113427762Y-71250151D01*
X113230225Y-71158039D01*
X113230224Y-71158039D01*
X113225243Y-71155716D01*
X113219935Y-71154294D01*
X113219933Y-71154293D01*
X113009402Y-71097881D01*
X113009400Y-71097881D01*
X113004087Y-71096457D01*
X112776000Y-71076502D01*
X112547913Y-71096457D01*
X112542600Y-71097881D01*
X112542598Y-71097881D01*
X112332067Y-71154293D01*
X112332065Y-71154294D01*
X112326757Y-71155716D01*
X112321776Y-71158039D01*
X112321775Y-71158039D01*
X112124238Y-71250151D01*
X112124233Y-71250154D01*
X112119251Y-71252477D01*
X112041800Y-71306709D01*
X111936211Y-71380643D01*
X111936208Y-71380645D01*
X111931700Y-71383802D01*
X111769802Y-71545700D01*
X111766645Y-71550208D01*
X111766643Y-71550211D01*
X111755871Y-71565595D01*
X111638477Y-71733251D01*
X111636154Y-71738233D01*
X111636151Y-71738238D01*
X111569499Y-71881175D01*
X111541716Y-71940757D01*
X111540294Y-71946065D01*
X111540293Y-71946067D01*
X111489503Y-72135617D01*
X111482457Y-72161913D01*
X111462502Y-72390000D01*
X108473814Y-72390000D01*
X108476212Y-64394703D01*
X109650743Y-64394703D01*
X109688268Y-64679734D01*
X109764129Y-64957036D01*
X109876923Y-65221476D01*
X110024561Y-65468161D01*
X110204313Y-65692528D01*
X110412851Y-65890423D01*
X110646317Y-66058186D01*
X110650112Y-66060195D01*
X110650113Y-66060196D01*
X110671869Y-66071715D01*
X110900392Y-66192712D01*
X111170373Y-66291511D01*
X111451264Y-66352755D01*
X111479841Y-66355004D01*
X111674282Y-66370307D01*
X111674291Y-66370307D01*
X111676739Y-66370500D01*
X111832271Y-66370500D01*
X111834407Y-66370354D01*
X111834418Y-66370354D01*
X112042548Y-66356165D01*
X112042554Y-66356164D01*
X112046825Y-66355873D01*
X112051020Y-66355004D01*
X112051022Y-66355004D01*
X112187584Y-66326723D01*
X112328342Y-66297574D01*
X112599343Y-66201607D01*
X112854812Y-66069750D01*
X112858313Y-66067289D01*
X112858317Y-66067287D01*
X112972417Y-65987096D01*
X113090023Y-65904441D01*
X113300622Y-65708740D01*
X113482713Y-65486268D01*
X113632927Y-65241142D01*
X113748483Y-64977898D01*
X113827244Y-64701406D01*
X113867751Y-64416784D01*
X113867845Y-64398951D01*
X113867867Y-64394703D01*
X140384743Y-64394703D01*
X140422268Y-64679734D01*
X140498129Y-64957036D01*
X140610923Y-65221476D01*
X140758561Y-65468161D01*
X140938313Y-65692528D01*
X141146851Y-65890423D01*
X141380317Y-66058186D01*
X141384112Y-66060195D01*
X141384113Y-66060196D01*
X141405869Y-66071715D01*
X141634392Y-66192712D01*
X141904373Y-66291511D01*
X142185264Y-66352755D01*
X142213841Y-66355004D01*
X142408282Y-66370307D01*
X142408291Y-66370307D01*
X142410739Y-66370500D01*
X142566271Y-66370500D01*
X142568407Y-66370354D01*
X142568418Y-66370354D01*
X142776548Y-66356165D01*
X142776554Y-66356164D01*
X142780825Y-66355873D01*
X142785020Y-66355004D01*
X142785022Y-66355004D01*
X142921584Y-66326723D01*
X143062342Y-66297574D01*
X143333343Y-66201607D01*
X143588812Y-66069750D01*
X143592313Y-66067289D01*
X143592317Y-66067287D01*
X143706417Y-65987096D01*
X143824023Y-65904441D01*
X144034622Y-65708740D01*
X144216713Y-65486268D01*
X144366927Y-65241142D01*
X144482483Y-64977898D01*
X144561244Y-64701406D01*
X144601751Y-64416784D01*
X144601845Y-64398951D01*
X144603235Y-64133583D01*
X144603235Y-64133576D01*
X144603257Y-64129297D01*
X144565732Y-63844266D01*
X144489871Y-63566964D01*
X144479295Y-63542170D01*
X144378763Y-63306476D01*
X144378761Y-63306472D01*
X144377077Y-63302524D01*
X144229439Y-63055839D01*
X144049687Y-62831472D01*
X143841149Y-62633577D01*
X143607683Y-62465814D01*
X143585843Y-62454250D01*
X143562654Y-62441972D01*
X143353608Y-62331288D01*
X143126871Y-62248314D01*
X143087658Y-62233964D01*
X143087656Y-62233963D01*
X143083627Y-62232489D01*
X142802736Y-62171245D01*
X142771685Y-62168801D01*
X142579718Y-62153693D01*
X142579709Y-62153693D01*
X142577261Y-62153500D01*
X142421729Y-62153500D01*
X142419593Y-62153646D01*
X142419582Y-62153646D01*
X142211452Y-62167835D01*
X142211446Y-62167836D01*
X142207175Y-62168127D01*
X142202980Y-62168996D01*
X142202978Y-62168996D01*
X142066416Y-62197277D01*
X141925658Y-62226426D01*
X141654657Y-62322393D01*
X141399188Y-62454250D01*
X141395687Y-62456711D01*
X141395683Y-62456713D01*
X141353099Y-62486642D01*
X141163977Y-62619559D01*
X140953378Y-62815260D01*
X140771287Y-63037732D01*
X140621073Y-63282858D01*
X140505517Y-63546102D01*
X140426756Y-63822594D01*
X140386249Y-64107216D01*
X140386227Y-64111505D01*
X140386226Y-64111512D01*
X140384765Y-64390417D01*
X140384743Y-64394703D01*
X113867867Y-64394703D01*
X113869235Y-64133583D01*
X113869235Y-64133576D01*
X113869257Y-64129297D01*
X113831732Y-63844266D01*
X113755871Y-63566964D01*
X113745295Y-63542170D01*
X113644763Y-63306476D01*
X113644761Y-63306472D01*
X113643077Y-63302524D01*
X113495439Y-63055839D01*
X113315687Y-62831472D01*
X113107149Y-62633577D01*
X112873683Y-62465814D01*
X112851843Y-62454250D01*
X112828654Y-62441972D01*
X112619608Y-62331288D01*
X112392871Y-62248314D01*
X112353658Y-62233964D01*
X112353656Y-62233963D01*
X112349627Y-62232489D01*
X112068736Y-62171245D01*
X112037685Y-62168801D01*
X111845718Y-62153693D01*
X111845709Y-62153693D01*
X111843261Y-62153500D01*
X111687729Y-62153500D01*
X111685593Y-62153646D01*
X111685582Y-62153646D01*
X111477452Y-62167835D01*
X111477446Y-62167836D01*
X111473175Y-62168127D01*
X111468980Y-62168996D01*
X111468978Y-62168996D01*
X111332416Y-62197277D01*
X111191658Y-62226426D01*
X110920657Y-62322393D01*
X110665188Y-62454250D01*
X110661687Y-62456711D01*
X110661683Y-62456713D01*
X110619099Y-62486642D01*
X110429977Y-62619559D01*
X110219378Y-62815260D01*
X110037287Y-63037732D01*
X109887073Y-63282858D01*
X109771517Y-63546102D01*
X109692756Y-63822594D01*
X109652249Y-64107216D01*
X109652227Y-64111505D01*
X109652226Y-64111512D01*
X109650765Y-64390417D01*
X109650743Y-64394703D01*
X108476212Y-64394703D01*
X108476536Y-63313477D01*
X108478037Y-63294127D01*
X108480360Y-63279211D01*
X108481742Y-63270337D01*
X108479612Y-63254043D01*
X108478819Y-63229469D01*
X108493395Y-63007141D01*
X108495546Y-62990801D01*
X108544170Y-62746371D01*
X108548436Y-62730451D01*
X108628547Y-62494462D01*
X108634854Y-62479236D01*
X108745080Y-62255722D01*
X108753321Y-62241449D01*
X108891780Y-62034233D01*
X108901813Y-62021157D01*
X108912211Y-62009301D01*
X109066133Y-61833787D01*
X109077787Y-61822133D01*
X109265157Y-61657813D01*
X109278233Y-61647780D01*
X109485449Y-61509321D01*
X109499722Y-61501080D01*
X109723236Y-61390854D01*
X109738462Y-61384547D01*
X109974451Y-61304436D01*
X109990371Y-61300170D01*
X110234801Y-61251546D01*
X110251141Y-61249395D01*
X110466304Y-61235289D01*
X110489431Y-61236318D01*
X110492911Y-61236361D01*
X110501785Y-61237742D01*
X110510686Y-61236578D01*
X110510692Y-61236578D01*
X110533514Y-61233593D01*
X110549783Y-61232529D01*
X129343931Y-61222249D01*
X143460745Y-61214527D01*
X143480187Y-61216026D01*
G37*
%TD.AperFunction*%
%TD*%
M02*
